<?xml version="1.0" encoding="utf-8"?>

<!DOCTYPE svg PUBLIC "-//W3C//DTD SVG 1.1//EN" "http://www.w3.org/Graphics/SVG/1.1/DTD/svg11.dtd">
<svg version="1.1" id="Layer_1" xmlns="http://www.w3.org/2000/svg" xmlns:xlink="http://www.w3.org/1999/xlink" x="0px" y="0px"
	 viewBox="-52 -52.6027 2002 2025.2054" enable-background="new -52 -52.6027 2002 2025.2054" xml:space="preserve">
<g>
	<path d="M1898,1064.4399v15.26c-0.87,12.4701-2.99,25.25-9.21,36.28c-3.8401,6.84-9.67,12.85-17.16,15.5701
		c-7.6,2.87-16.09,2.0399-23.6-0.66c-16.03-6.15-28.75-18.4501-39.38-31.58c-19.99-25.25-33.4301-55.29-41.36-86.3801
		c-5.04-20.49-7.5701-41.88-4.98-62.92c1.1599-9.02,3.49-17.98,7.74-26.06c2.95-5.4,6.88-10.41,12.1-13.78
		c6.39-4.23,14.48-5.52,21.97-4.1c9.92,1.73,18.8101,7.04,26.64,13.18c11.46,9.18,20.95,20.6,29.14,32.74
		c10.9399,16.41,19.5,34.34,25.99,52.94C1892.52,1024.11,1896.89,1044.15,1898,1064.4399z"/>
	<path fill="#333333" d="M1848.03,1130.89c-4.04,7.3199-10.0701,13.99-18.15,16.79c-8.01,2.9299-16.86,1.6799-24.67-1.2401
		c-16.12-6.8099-28.86-19.5199-39.52-33.0699c-19.08-24.83-32.0699-54.03-39.75-84.29c-5.0399-20.28-7.5699-41.4299-5.1399-62.28
		c1.0299-7.63,2.5699-15.3,5.7699-22.35c0.9-2.05,1.63-4.17,2.2101-6.32l0.59,0.15c3.7-5.5,8.09-10.83,14.21-13.72
		c8.1901-4.28,17.9601-3.53,26.4701-0.61c-4.25,8.08-6.5801,17.04-7.74,26.06c-2.5901,21.04-0.0601,42.43,4.98,62.92
		c7.9299,31.09,21.37,61.1301,41.36,86.3801C1819.28,1112.4399,1832,1124.74,1848.03,1130.89z"/>
	<path d="M1805.21,1146.4399c-4.01,6.6801-9.7899,12.64-17.2999,15.1901c-8.35,3.0699-17.67,1.64-25.6901-1.74
		c-12.65-5.41-23.08-14.8101-32.1699-24.9401c-12.04-13.72-21.7301-29.3899-29.53-45.85c-4.46,1.5-8.8201,3.24-13.21,4.88
		c-7.8701-11.2999-15.77-22.59-23.6101-33.91c7.54-2.85,15.13-5.58,22.63-8.5499c-3.9099-13.2001-6.5599-26.78-7.7699-40.48
		c-1.3401-16.79-0.88-34.19,5-50.15c3.5499-9.54,9.7699-18.84,19.4099-22.99c8.17-3.75,17.5601-2.66,25.8101,0.23
		c-0.5801,2.15-1.3101,4.27-2.2101,6.32c-3.2,7.05-4.74,14.72-5.7699,22.35c-2.4301,20.85,0.1,42,5.1399,62.28
		c7.6801,30.26,20.67,59.4601,39.75,84.29C1776.35,1126.92,1789.09,1139.63,1805.21,1146.4399z"/>
	<path fill="#ffd9b5" d="M1687.3101,1093.98c4.5599,6.6901,9.4399,13.16,13.7799,20.01c-36.9399,7.11-73.9099,14.0701-110.85,21.16
		c-7.72,1.3099-15.3199,3.34-23.15,3.84c0.51-0.22,1.52-0.65,2.02-0.86c-3.4299-12.9-7.09-25.74-10.74-38.58
		c-0.11-0.3501-0.3199-1.0601-0.4301-1.42c-6.99,3.13-14.2699,5.67-20.9299,9.46c-3.84,1.67-7.83,2.9401-11.66,4.61
		c-4.12,1.66-8.0399,3.9401-12.45,4.75c-6.49-7.87-14.42-14.3899-21.1901-22.01c20.9701-10.5399,42.1801-20.59,63.1901-31.0399
		c-27.3101-70.03-55.14-139.8701-82.36-209.9301c1.8999-6.85,5.0299-13.3199,7.3999-20.03c7.7201-20.29,15.8201-40.44,23.17-60.86
		c-23.33,22.53-50.1,42.57-81.12,53.02c-22.74,7.76-47.6,9.32-71.02,3.79c-30.3099-6.97-57.23-24.17-80.35-44.49
		c-8.46-7.56-16.71-15.38-24.2-23.91c6.01-2.1,10.99-7.34,12.75-13.48c1.5399-4.28-3.1001-8.45-7.1801-8.26
		c-4,0.62-7.87,2.27-11.98,1.82c-3.3101-0.33-6.34,1.11-9.35,2.2c-2.75-3.64-5.7201-7.1-8.4401-10.76c0.05-3.09,0.03-6.19-0.03-9.27
		c-0.9199-0.12-2.7599-0.34-3.6799-0.45c-1.38,5.47-0.9301,11.15-0.01,16.66c0.22,3.25-0.12,6.5-0.29,9.74
		c-2.49-4.53-4.3099-9.5-4.6899-14.68c-0.46-6.42,0.1899-12.85-0.29-19.27c-1.15,6.35,0.61,12.84-0.79,19.2
		c0.3-6.32,0.1201-12.65,0.01-18.97c-0.72,0.17-2.1699,0.5-2.8899,0.67c-0.4501,10.48-1.4801,21.67,3.1899,31.44
		c1.29,3.05,3.29,5.72,5.4399,8.22c0.3201,10.23-0.5199,20.46-0.48,30.69c-0.59,40.08-1.38,80.14-2.1499,120.21
		c-24.02,8.3-48.05,16.58-71.9901,25.11c-10.71,59.63-21.2799,119.28-32.0699,178.89c-3.79,0.8201-7.66,1.15-11.4,2.13
		c-1.37,0.3201-2.74,0.62-4.09,0.91c-6.3,0.92-13.1,0.41-18.83,3.5601c-23.6801,4.8099-47.4601,9.11-71.22,13.5599
		c-23.63,4.1801-47.2,8.8201-70.96,12.25c-3.45,0.21-5.72,3.11-7.82,5.5c-6.18-19.48-11.52-39.23-17.36-58.8199
		c-7.8-26.5701-15.44-53.1801-23.29-79.73c-40.52-15.84-81.05-31.69-121.59-47.47c-2.54-1.3-6.35-1.45-7.48-4.47
		c-17.19-45.33-34.05-90.79-51.43-136.04c-3.6201-9.47-6.67-19.17-10.76-28.44c-0.92,0.24-2.76,0.73-3.68,0.97
		c-114.57,25.97-229.2,51.69-343.8,77.54c-20.37-19.44-40.83-38.81-61.24-58.21c-0.97-0.89-1.59-2.07-1.64-3.38
		c-10.09-109.67-20.29-219.34-30.42-329.01c-0.32-3.19-0.03-6.71-1.93-9.48c-5-7.63-9.86-15.34-14.87-22.97
		c10.18-3.22,20.11-7.16,30.1-10.92c2.93-1.01,5.85-2.67,9.03-2.51c7.22,4.27,13.96,9.35,21.12,13.73
		c-0.81-7.26-3.26-14.31-3.64-21.59c9.27-6.35,19.46-11.25,29.09-17.03c3.42-2.14,7.33-3.74,9.9-6.99
		c-3.64,0.48-7.17,1.41-10.7,2.35l-0.91-3.39c3-0.57,5.73-3.04,5.87-6.28c0.04-0.27,0.05-0.54,0.05-0.81l5.54,0.17
		c-0.02,0.66-0.04,1.31-0.06,1.97c1.62-0.62,3.25-1.22,4.9-1.79c3.85,0.43,7.17-1.75,10.59-3.13c3.74-1.57,7.47-3.17,10.98-5.22
		c6.5-2.72,13.2-4.9,19.77-7.46c4.32,8.15,8.22,16.52,12.48,24.72c-18.04,14.35-36.39,28.31-54.56,42.51
		c21.32,65.59,42.89,131.09,64.26,196.66c1.02,3.4,2.72,6.71,2.74,10.33c-1.62,25.7-3.03,51.41-4.59,77.11
		c-0.13,7.2-1.18,14.3701-0.98,21.58l14.31,22.24c5.43,0.03,10.71-1.42,16.09-1.99c66.6-10.01,133.16-20.42,199.79-30.26
		c-0.18-2.21-0.41-4.42-0.9-6.57c-2.88-13.65-5.48-27.35-8.28-41.0099l4.89-20.9c3.94-13.19,10.89-25.34,19.56-35.97
		c20.71-24.9901,51.33-42.26,83.92-44.59c15.86-0.79,32.88,1.44,46.03,11.02c3.33-2.47,6.64-4.98,9.93-7.51
		c6.62,4.69,14.18,7.78,21.36,11.5c13.93,7.12,28.13,13.73,41.96,21.06c6.3,3.04,12.49,6.35,18.92,9.12
		c3.36,1.5,7.11,1.3,10.71,1.41c61.7,3.02,123.41,6.03,185.1199,8.97c16.65-26.11,33.41-52.17,49.7101-78.5
		c6.96,4.06,15.2799,4.15,23.12,4.1c3.49-2.01,6.39-4.91,9.9199-6.89c25.26-15.44,56.78-18.32,85.28-11.71
		c20.0601,4.65,39.3101,14.15,53.97,28.79c3.28,3.1,5.37,7.29,8.87,10.18c6.8301,2.54,13.99,4.15,20.9401,6.39
		c87.7999,26.14,175.64,52.17,263.4399,78.33c1.63,0.21,2.1001,1.87,2.55,3.22c5.12,17.14,10.36,34.24,15.59,51.35
		c1.76,6.56,4.3201,12.92,5.64,19.59c9.3201,84.68,18.54,169.38,27.88,254.05c0.48,2.46,2.25,4.38,3.6,6.4301
		c10.4,14.85,20.74,29.7299,31.11,44.6099C1671.54,1071.39,1679.4399,1082.6801,1687.3101,1093.98z M1486.54,725.04
		c-2.8301-3.03-7.12-3.48-10.8401-4.7c-6.6399-2.08-13.2899-4.08-19.97-5.98c-42.04-11.9-84.35-22.83-126.75-33.37
		c-20.2999-4.63-40.41-10.2-60.96-13.68c-1.74,0.01-4.04-1.19-5.24,0.57c1.09,14.03,2.98,28,4.52,41.99
		c5.83,1.1,11.7799,1.31,17.6599,2.09c41,4.2599,82,8.58,123.1001,11.88c21.95,1.6,43.9199,3.73,65.96,3.37
		C1478.21,726.84,1482.84,727.48,1486.54,725.04z M1252.88,591.02c0.8099-7.06-3.79-13.81-9.9-16.9901
		c-9.14-5.5-20.33-6.53-30.65-4.5099c-7.64,1.73-15.1,5.75-19.34,12.54c-3.4,5.8-1.92,13.56,2.76,18.21
		c7.5699,7.62,18.87,10.12,29.3,9.65c7.5499-0.63,15.2799-2.77,21.24-7.65C1249.6801,599.44,1252.49,595.53,1252.88,591.02z
		 M1170.77,794.75c1.5699-1.11,0.53-3.19,0.51-4.73c-4.26-24.4-7.7101-48.95-11.88-73.36c-1.67-3.2-4.75-5.35-7.3301-7.75
		c-4.08-3.22-7.5399-7.09-11.33-10.6c-8.9-7.33-16.55-16.2-25.71-23.14c-16.53,9.72-32.91,19.73-49.4,29.53
		c-5.37,3-10.3101,7.37-16.5699,8.27c-35.66,3.84-71.3401,7.6201-106.98,11.64c-7.89,1.06-15.66-1.23-23.44-2.18
		c-18.56-2.57-37.1-5.21-55.65-7.85c-12.04-1.56-23.99-3.82-36.07-4.93c-12.39,11.33-24.71,22.73-36.76,34.43
		c-3.41,3.09-7.17,5.84-9.99,9.53c16.84,27.49,34.56,54.44,51.29,81.99c2.06,3.26,5.41,5.31,8.42,7.59
		c18.2,14.15,36.78,27.8,54.91,42.06c15.48,11.86,31.11,23.51,46.4901,35.5c3.89,3.03,8.47,5.43,11.59,9.33
		c10.33,21.19,21.01,42.21,31.53,63.31c5.33,9.71,9.56,20.02,15.12,29.61c13.93-33.94,27.4299-68.05,41.47-101.95
		c2.52-6.67,5.0601-13.35,8.36-19.69c9.0701-18.24,18.3101-36.41,27.3101-54.69c1.23-2.77,4.35-3.7,6.73-5.21
		c26.28-14.07,52.66-27.96,78.9-42.09C1165.13,797.87,1168.21,796.75,1170.77,794.75z M1163.8101,895.7
		c2.36-3.8,4.7899-8.08,4-12.73c0-4.68-4.27-7.6-7.3301-10.48c-7.86-4.53-17.25-4.78-26.04-3.71
		c-6.8199,1.36-13.48,4.2401-18.45,9.21c-3.7,5.14-5.55,12.02-2.89,18.03c4.26,6.21,11.51,9.68,18.9301,10.13
		C1143.48,907.48,1155.49,903.74,1163.8101,895.7z M873.95,914.96c0.24-5.41-3.57-10.09-7.41-13.47c-8-5.84-18.37-8.21-28.15-6.98
		c-2.8,0.5-5.55,1.21-8.28,1.98c-6.55,2.07-12.8,7.72-12.55,15.06c0.08,6.24,4.85,10.83,9.48,14.34c3.18,2.74,7.35,3.77,11.28,4.97
		c9.27,3,19.59,1.15,28.02-3.41C870.04,924.3,874.2,920.22,873.95,914.96z M753.08,630.97c1.76-6.04,0.3-13.27-4.78-17.29
		c-7.41-6.99-18.52-6.83-27.92-5.18c-12.04,3.1-23.69,9.78-30.45,20.49c-4.01,6.06-5.67,14.43-1.96,21.02
		c3.2,4.98,8.4,8.66,14.3101,9.55c13.33,2.34,27.4-1.95,37.92-10.3C745.94,644.43,751.4,638.51,753.08,630.97z"/>
	<path d="M1569.11,1138.13c-0.5,0.21-1.51,0.64-2.02,0.86c-23.0499,8.72-46.15,17.33-69.23,25.96
		c3.75,14.1101,6.89,28.4601,7.8101,43.0701c1.14,15.91,0.4399,32.35-5.05,47.47c-3.33,9.05-8.97,17.87-17.73,22.4401
		c-7.27,3.8899-16.02,4.0199-23.8201,1.74c2.5-6.54,5.26-13.04,6.4301-19.99c4.17-22.75,1.5699-46.1901-3.76-68.52
		c-8.1-32.1-21.98-63.16-42.99-88.9301c-10.98-13.04-24.05-25.4399-40.64-30.72c3.8101-6.73,9.24-12.91,16.54-15.89
		c8.78-3.78,18.9-2.45,27.46,1.29c11.89,5.1899,21.9301,13.85,30.59,23.38c12.7201,14.01,22.7001,30.2999,30.91,47.2999
		c9.79-3.46,19.33-7.72,29.29-10.64c4.41-0.8099,8.33-3.09,12.45-4.75c3.8301-1.6699,7.8201-2.9399,11.66-4.61
		c7.0699-2.7799,14.24-5.33,21.36-8.0399C1562.02,1112.39,1565.6801,1125.23,1569.11,1138.13z"/>
	<path fill="#f3cca6" d="M1475.7,720.34c3.7201,1.22,8.01,1.67,10.8401,4.7c-3.7001,2.44-8.3301,1.8-12.52,2.17
		c-22.04,0.36-44.01-1.77-65.96-3.37c-41.1001-3.3-82.1001-7.6201-123.1001-11.88c-5.88-0.78-11.83-0.9901-17.6599-2.09
		c-1.54-13.99-3.4301-27.96-4.52-41.99c1.2-1.76,3.5-0.56,5.24-0.57c20.5499,3.48,40.66,9.05,60.96,13.68
		c42.4,10.54,84.71,21.47,126.75,33.37C1462.41,716.26,1469.0601,718.26,1475.7,720.34z"/>
	<path fill="#333333" d="M1461.74,1191.16c5.33,22.33,7.9301,45.77,3.76,68.52c-1.17,6.95-3.9301,13.45-6.4301,19.99
		c-4.1599,5.8999-8.5399,12.09-15.33,15.1599c-6.22,3.3401-13.4,3.1001-20.21,2.63c5.3199-8.5299,7.61-18.52,9-28.35
		c2.64-21.49-0.1901-43.2999-5.39-64.21c-8.5-32.38-22.89-63.7001-44.6801-89.3301C1371.12,1102.79,1357.53,1090.5,1340.4,1086.66
		c3.4299-5.48,7.84-10.5701,13.71-13.5c7.3201-3.9,16.16-3.8201,24-1.65c16.59,5.28,29.66,17.6799,40.64,30.72
		C1439.76,1128,1453.64,1159.0601,1461.74,1191.16z"/>
	<path d="M1427.14,1204.9c5.2,20.91,8.03,42.72,5.39,64.21c-1.39,9.83-3.6801,19.8201-9,28.35
		c-4.6901,8.24-12.85,14.8401-22.4301,16.0901c-9.9399,1.37-19.78-2.1801-28.1699-7.24c-11.62-7.0801-21.3-16.91-29.7101-27.5
		c-13.03-16.6101-23.1-35.39-30.83-54.9901c-7.23-18.5499-12.4-37.96-14.66-57.75c-1.83-17.3199-1.78-35.2599,3.62-51.98
		c3.12-9.5699,8.5601-19.0299,17.48-24.21c6.4401-3.83,14.29-4.61,21.5701-3.22c17.13,3.84,30.72,16.13,42.0599,28.9099
		C1404.25,1141.2,1418.64,1172.52,1427.14,1204.9z M1388.1801,1225.4399c2.35-11.6699,0.21-23.7799-3.52-34.9199
		c-4.37-12.41-10.9-24.5701-21.24-33c-4.4401-3.5801-10.5601-6.4301-16.25-4.28c-5.86,2.36-8.36,8.9301-9.3,14.72
		c-1.6899,11.65,0.5601,23.53,4.52,34.5c4.21,11.4,10.33,22.48,19.62,30.53c4.51,3.8,10.52,7.0701,16.58,5.35
		C1384.17,1236.59,1386.99,1230.75,1388.1801,1225.4399z"/>
	<path fill="#7F7F7F" d="M1384.66,1190.52c3.73,11.14,5.87,23.25,3.52,34.9199c-1.1901,5.3101-4.01,11.15-9.5901,12.9
		c-6.0599,1.7201-12.0699-1.5499-16.58-5.35c-9.29-8.05-15.41-19.13-19.62-30.53c-3.96-10.97-6.21-22.85-4.52-34.5
		c0.9401-5.7899,3.4401-12.36,9.3-14.72c5.6899-2.15,11.8099,0.7,16.25,4.28C1373.76,1165.95,1380.29,1178.11,1384.66,1190.52z
		 M1375.15,1215c2.0699-4.5,1.8199-9.66,1.13-14.4399c-1.5801-8.6201-5.12-17.1201-11.2101-23.54
		c-2.74-2.78-6.5299-5.52-10.6499-4.47c-4.28,1.4199-5.49,6.5-5.75,10.49c-0.38,9.6,2.88,19.1599,8.1699,27.11
		c2.79,3.7999,6.2201,7.85,11.0901,8.85C1370.9301,1219.72,1373.97,1217.73,1375.15,1215z"/>
	<path d="M1376.28,1200.5601c0.6899,4.7799,0.9399,9.9399-1.13,14.4399c-1.1801,2.73-4.22,4.72-7.22,4
		c-4.87-1-8.3-5.05-11.0901-8.85c-5.2899-7.9501-8.5499-17.51-8.1699-27.11c0.26-3.99,1.47-9.0701,5.75-10.49
		c4.12-1.05,7.9099,1.6899,10.6499,4.47C1371.16,1183.4399,1374.7,1191.9399,1376.28,1200.5601z"/>
	<path fill="#ffd9b5" d="M1343.9,1810.01c-0.5801,6.59-1.63,13.14-2.4501,19.71c-4.58-1.7-9.13-3.47-13.8099-4.85
		c3.92,4.36,8.1,8.47,12.36,12.5c-1.75,6.09-4.4,11.87-6.5699,17.8199c-5.92-4.12-10.88-9.4299-16.78-13.5599
		c3.5599,7.42,7.6899,14.55,11.34,21.9399c-4.64,4.39-8.97,9.0901-13.66,13.4301c-3.89-4.75-7.7-9.55-11.7799-14.12
		c1.5399,8.38,3.5499,16.67,5.09,25.0699c-5.5601,2.9-10.72,6.53-16.42,9.17c-2.0499-7.46-4.36-14.83-6.47-22.26
		c-2.48,10.11-4.62,20.3201-6.73,30.52c-13.12,0.14-26.23,0.05-39.34,0.05c-1.9301-8.9701-3.6801-17.9601-5.39-26.9501
		c-9.79-3.7-20.16-5.9199-29.78-9.9399c-6.37-13.15-11.98-26.7001-18.0601-40c-2.37-4.8201-3.72-10.4-7.86-14.0901
		c-7.1599-6.86-14.0699-13.96-21.09-20.96c-2.34-2.4299-5.72-3.24-8.73-4.46c-16-6.26-32.02-12.48-48.02-18.75l-0.3199-0.48
		c-1.14-21.0701-1.6901-42.16-2.8201-63.2301c14.15-8.24,28.71-15.7699,42.8-24.1c-1-17.14-0.73-34.3199-1.53-51.46
		c-1.17-51.72-2.72-103.4401-3.91-155.16c0.17-2.58,2.1901-4.4399,3.5801-6.45c11.4399-15.4,22.7699-30.88,34.1499-46.3201
		c-26.7799-36.86-53.76-73.59-80.37-110.5699c32.51-6.72,64.99-13.65,97.4401-20.67c0.58-0.13,1.16-0.27,1.73-0.4
		c0.1899-0.0499,0.38-0.09,0.5699-0.1299c2.3-0.52,4.6101-1,6.9301-1.4801c8.8199,16.3401,16.92,33.0601,25.34,49.61
		c8.77,17.5901,17.6,35.16,25.9701,52.9501c1.49,3.11,4.3899,5.14,6.5099,7.79c5.9801,7.34,9.6901,16.37,11.28,25.6699
		c2.62,16.91-0.91,35.62-12.7,48.53c-1.47,1.73-3.65,3.2-3.8,5.6801c-12.39,75.6799-25.45,151.25-37.85,226.9299
		c-0.33,2.79-1.4,6.05,0.75,8.4301c16.7,23.64,33.36,47.3099,50.05,70.96c1.46,2.37,4.51,2.46,6.9199,3.28
		C1294.97,1796.35,1319.41,1803.27,1343.9,1810.01z M1249.73,1445.74c8.5801-9.16,9.02-25.39-0.38-34.14
		c-3.28-3.48-8.58-4.6-13.09-3.1799c-6.55,2.0299-10.24,8.58-11.79,14.87c-1.1799,6.1799-0.08,12.74,2.86,18.2999
		c2.4401,3.87,6.3501,7.11,10.9501,7.9601C1242.36,1450,1246.87,1448.84,1249.73,1445.74z M1189.95,1455.74
		c-4.5499,2.3101-8.2,5.97-12.35,8.87c-7.11,5.58-14.21,11.1801-21.53,16.5c-2.7599,1.65-2.2699,5.1-2.22,7.85
		c2.54,51.3501,4.92,102.7001,7.39,154.0601c0.8,6.2999,0.1,12.72,1.33,18.97c2.25-48.84,7.3101-97.58,14.7101-145.92
		C1180.51,1495.78,1183.34,1475.27,1189.95,1455.74z"/>
	<path fill="#844f2c" d="M1251.99,739.75c4.08-0.19,8.72,3.98,7.1801,8.26c-1.76,6.14-6.74,11.38-12.75,13.48
		c-4,0.62-7.3201,3.6-11.4801,3.25c-6.6799,0.47-12.4299-3.8-16.75-8.44c-2.1499-2.5-4.1499-5.17-5.4399-8.22
		c-4.67-9.77-3.64-20.96-3.1899-31.44c0.72-0.17,2.1699-0.5,2.8899-0.67c0.1101,6.32,0.29,12.65-0.01,18.97
		c1.4-6.36-0.36-12.85,0.79-19.2c0.48,6.42-0.1699,12.85,0.29,19.27c0.38,5.18,2.2,10.15,4.6899,14.68
		c3.23,6.42,9.8401,10.71,16.8301,11.9c-9.4-3.03-14.9701-12.33-16.54-21.64c-0.92-5.51-1.37-11.19,0.01-16.66
		c0.92,0.11,2.76,0.33,3.6799,0.45c0.0601,3.08,0.0801,6.18,0.03,9.27c-0.4099,8.3,2.3401,17.58,9.49,22.47
		c2.88,2.09,6.4701,2.66,9.9301,3.14c0.24-0.29,0.72-0.86,0.97-1.15c2.87-3.11,5.53-8.48,2.17-12.17
		c-3.67-2.95-9.13-2.26-13.2101-0.56c-0.3899,2.24-0.85,4.48-1.3099,6.72c0.11-2.57,0.25-5.13,0.4-7.69
		c3.01-1.09,6.0399-2.53,9.35-2.2C1244.12,742.02,1247.99,740.37,1251.99,739.75z M1256.36,748.05c0.34-1.81,0.38-3.99-1.08-5.32
		c-2.8401-1.7-6.37-1.62-9.5-0.98c1.03,2.35,2.98,4.48,2.9,7.2c0.21,2.99-0.54,5.91-1.41,8.75
		C1250.9,755.16,1254.73,752.34,1256.36,748.05z"/>
	<path fill="#CB8D53" d="M1255.28,742.73c1.46,1.33,1.4199,3.51,1.08,5.32c-1.63,4.29-5.46,7.11-9.09,9.65
		c0.87-2.84,1.62-5.76,1.41-8.75c0.08-2.72-1.87-4.85-2.9-7.2C1248.91,741.11,1252.4399,741.03,1255.28,742.73z"/>
	<path fill="#f3cca6" d="M1242.98,574.03c6.11,3.1801,10.71,9.9301,9.9,16.9901c-0.39,4.5099-3.2,8.42-6.59,11.25
		c-5.9601,4.88-13.6901,7.02-21.24,7.65c-10.4301,0.47-21.7301-2.03-29.3-9.65c-4.6801-4.65-6.16-12.41-2.76-18.21
		c4.24-6.79,11.7-10.81,19.34-12.54C1222.65,567.5,1233.84,568.53,1242.98,574.03z"/>
	<path fill="#f3cca6" d="M1249.35,1411.6c9.4,8.75,8.9601,24.98,0.38,34.14c-2.86,3.1-7.37,4.26-11.45,3.8101
		c-4.6-0.8501-8.51-4.0901-10.9501-7.9601c-2.9399-5.5599-4.0399-12.12-2.86-18.2999c1.55-6.29,5.24-12.8401,11.79-14.87
		C1240.77,1407,1246.0699,1408.12,1249.35,1411.6z"/>
	<path fill="#CB8C55" d="M1244.78,745.3c3.36,3.69,0.7,9.06-2.17,12.17c-3.74-4.19-7.4299-8.43-11.04-12.73
		C1235.65,743.04,1241.11,742.35,1244.78,745.3z"/>
	<path fill="#844f2c" d="M1219.0699,23.79c9.62,11.72,13.9301,27.2,13.28,42.23c-0.9199,19.66-8.14,38.48-17.8099,55.43
		c-13.2201,22.53-30.6901,42.89-52.27,57.77c-10.88,7.71-23.9501,11.63-37.12,12.9c-25.51,1.98-50.91-2.32-75.8-7.5
		c-30.79-6.19-61.23-14.2-92.35-18.62c-11.59-1.58-23.25-2.79-34.96-2.5c-17.09-0.5-34.46,2.3-50,9.6
		c-7.74,3.09-13.85,8.93-20.22,14.1c-9.21,9.1-15.42,20.69-20.88,32.3c-4.66,13.16-8.86,26.53-11.24,40.32
		c-4.33,22.6-6.69,45.57-11.95,68c-4.77,19.67-12.1,39.14-24.62,55.25c-1.8,2.22-4.23,4.24-4.72,7.17c0.22-1.73,0.52-3.53-0.54-5.02
		c-3.93-6.59-6.74-13.78-8.78-21.16c-3.98-14.52-3.85-29.62-3.81-44.54c0.29-5.89,0.18-11.8,1.08-17.64
		c1.03-6.62,1.18-13.37,2.77-19.9c2.13-14.56,5.29-28.94,8.38-43.33c4.47-21.1,11.25-41.8,21.2-60.97
		c14.13-27.33,35.12-51.25,61.17-67.76c32.13-20.85,70.28-30.52,108.13-33.55c13.01-0.4,26.03-0.2,39.05-0.23
		c10.01,0.07,20.08-0.21,30.0099,1.26c29.7001,1.66,57.4301,14.27,86.9501,17.1c7.65,0.37,15.34,0.48,22.99-0.03
		c9.59-1.16,19.21-5.46,25.24-13.22c4.77-6.13,8-13.51,9.12-21.21c1.21-9.03-3.24-18.69-11.37-23.04
		c-9.77-5.66-21.63-3.78-32.1899-1.88c4.7899,0.8,9.86,1.36,14.08,3.96c2.85,2.01,2.91,6.11,0.98,8.77
		c-5.89,8.4-16.74,13.17-26.9,11.62c-5.5499-1.03-9.76-5.49-11.75-10.59c-3.8199-7.39-3.73-16.78,0.92-23.78
		c3.38-5.67,8.79-9.6,14.15-13.24c5.35-1.86,10.23-4.84,15.6799-6.43c7.5601-2.72,15.55-3.74,23.37-5.43h11.3
		c6.5699,1.11,12.77,3.57,18.84,6.28C1206.17,11.02,1213.5601,16.54,1219.0699,23.79z"/>
	<path fill="#bb3030" d="M1234.03,1281.9301c-7.36,1.5-14.67,3.23-22.04,4.61c-37.22-57.79-74.72-115.39-111.89-173.2101
		c3.74-0.98,7.61-1.3099,11.4-2.13c0.62-0.1599,1.87-0.49,2.5-0.6599c1.35,5.5,4.54,10.26,7.39,15.08
		c12.75,20.29,26.86,39.6901,40.7999,59.1801C1185.8,1217.42,1209.99,1249.62,1234.03,1281.9301z"/>
	<path fill="#FFFFFF" d="M1211.99,1286.54l-8.3099,1.6699c-37.02-57.23-74.15-114.3999-110.9801-171.76
		c-0.2-0.34-0.62-1.0299-0.8199-1.37c1.35-0.2999,2.74-0.5599,4.13-0.84c1.35-0.29,2.72-0.59,4.09-0.91
		C1137.27,1171.15,1174.77,1228.75,1211.99,1286.54z"/>
	<path fill="#bb3030" d="M1203.6801,1288.21c-1.91,0.52-3.8,1.05-5.6801,1.62c-2.3199,0.4801-4.63,0.9601-6.9301,1.4801
		c2.63-0.63,5.2401-1.3301,7.7301-2.41c-9.15,0.5399-17.9601,3.38-26.92,5.09c-23.97,5.01-47.89,10.24-71.86,15.22
		c-4.74,0.9501-9.42,2.17-14.09,3.42c0.5299,0.0599,1.59,0.1899,2.13,0.26c-3.76,0.74-7.4901,1.6-11.2201,2.41
		c-20.75-17.3401-41.13-35.1001-62.02-52.25c-16.97,27.61-33.95,55.22-51.04,82.76c-6.23-1.29-12.44-2.64-18.67-3.89
		c-34.64-7.3501-69.3-14.5801-103.96-21.76c-1.06-0.25-2.11-0.49-3.15-0.7101c2.93-9.6399,6.56-19.0599,10.42-28.37
		c13.84-32.89,30.41-64.5699,48.32-95.4099c9.41-15.9801,19.09-31.87,30.44-46.5601c2.1-2.39,4.37-5.29,7.82-5.5
		c23.76-3.4299,47.33-8.0699,70.96-12.25c23.7599-4.45,47.54-8.75,71.22-13.5599c5.25,0.9399,10.21-2.2201,15.5199-1.3501
		C1129.53,1173.8101,1166.66,1230.98,1203.6801,1288.21z"/>
	<path fill="#FFFF8C" d="M1187.3,0c3.85,1.85,8.01,3.29,11.1799,6.28c-6.0699-2.71-12.27-5.17-18.84-6.28H1187.3z"/>
	<path fill="#5080A5" d="M1198.8,1288.9c-2.49,1.08-5.1001,1.78-7.7301,2.41c-0.1899,0.0399-0.38,0.08-0.5699,0.1299
		c-0.5699,0.13-1.15,0.27-1.73,0.4c-32.4501,7.02-64.9301,13.9501-97.4401,20.67c-1.11,0.12-2.2,0.24-3.2699,0.38
		c-0.54-0.0701-1.6001-0.2001-2.13-0.26c4.6699-1.25,9.35-2.47,14.09-3.42c23.97-4.98,47.89-10.21,71.86-15.22
		C1180.84,1292.28,1189.65,1289.4399,1198.8,1288.9z"/>
	<path fill="#ffd9b5" d="M1194.41,269.39c-3.9701,30.76-7.98,61.51-12.02,92.27c-15.0601,2.07-30.1901,3.51-45.25,5.51
		c0.7,17.97,2.39,35.87,3.42,53.82c2.08,28.38,3.83,56.78,5.83,85.18c-32.04,8.01-64.08,16.07-96.13,24.04
		c-0.98,4.06-1.6901,8.19-2.37,12.31c-3.86,15.71-5.98,31.79-10.02,47.45c-11.63,0.59-23.27,0.07-34.91,0.2401
		c-46.34,0.0099-92.68,0.02-139.01-0.04c-2.52,0.52-2.72-2.38-3.3-4.07c-2.9-13.06-6.02-26.07-9.14-39.08
		c-1.05-3.29-0.59-7.57-3.5-9.94c-27.52-21.03-55.13-41.95-82.61-63.02c4.25-27.68,8.6-55.35,12.92-83.02
		c0.01-0.13,0.01-0.26,0.04-0.39c0.01-0.12,0.03-0.25,0.05-0.38c-0.0099-0.01-0.0099-0.02,0-0.03c0.4901-2.93,2.92-4.95,4.72-7.17
		c12.52-16.11,19.85-35.58,24.62-55.25c5.26-22.43,7.62-45.4,11.95-68c2.38-13.79,6.58-27.16,11.24-40.32
		c5.46-11.61,11.67-23.2,20.88-32.3c6.37-5.17,12.48-11.01,20.22-14.1c15.54-7.3,32.91-10.1,50-9.6c11.71-0.29,23.37,0.92,34.96,2.5
		c31.12,4.42,61.56,12.43,92.35,18.62c24.89,5.18,50.29,9.48,75.8,7.5c0.21,6.68,0.74,13.35,1.1899,20.02
		c1.87,25.21,3.3301,50.44,5.23,75.65C1152.53,281.7,1173.4301,275.39,1194.41,269.39z M1171.42,328.76
		c1.1599-11.56,2.1-23.15,3.2799-34.7c-11.5499,0.93-23.0399,2.68-34.62,3.22c-0.74,2.14-1.0399,4.39-1.09,6.64
		c9.41,0.44,18.66-1.77,28.03-2.05c-0.34,5.31-1.11,10.59-1.36,15.92c-8.01-3.85-15.2101-9.2-23.3401-12.79
		c-0.6899,8.23-2.7799,16.29-3.1499,24.55c5.97,2.37,11.89,4.88,17.98,6.94c1.1799-1.91,2.1-3.96,2.7899-6.1
		c-4.3899-1.89-8.9399-3.34-13.3199-5.23c0.24-2.98,0.53-5.96,0.92-8.92C1156.12,319.04,1162.98,325.64,1171.42,328.76z
		 M1092.78,430.85c2.4-9.84-0.78-20-4.87-28.93c-4.1901-6.86-10.04-12.85-17.28-16.48c-7.66-4.22-16.67-4.86-25.2-3.75
		c-5.6901,1.23-11.3101,3.27-15.9401,6.88c-9.06,5.95-14.54,16.1-16.86,26.47c-0.63,5.31-0.57,10.72-0.09,16.04
		c2.07,10.32,7.78,20.08,16.36,26.3c8.97,6.89,21.0399,9.67,32.0699,7.08c10.26-2.17,19.27-8.7,25.1801-17.27
		C1089.41,442.24,1091.37,436.57,1092.78,430.85z M1088.04,253.41c-3.91-2.92-8.52-4.62-12.9701-6.48
		c-11.1899-4.37-23.0499-6.99-35.0399-7.73c-7.65-1.15-15.36-0.12-22.98,0.73c-14.28,2.07-28.92,8.76-36.72,21.41
		c-7.38,11.51-8.2,26.05-5.77,39.18c-1.44,0.01-1.59,1.84-2.18,2.8c-1.51,4.08-3.19,8.7-1.71,13.02c2.03,1.94,5.03,2.33,7.62,3.22
		c14.58,4.13,28.92,9.02,43.29,13.83c6.54,2.32,12.7399,5.52,19.3599,7.61c6.9701,2.23,14.78-0.31,20.1001-5.08
		c6.71-6.28,10.0299-15.32,11.6-24.18c1.37-9.29,0.76-19.64-5.04-27.41c-2.37-3.41-6.58-4.58-9.6899-7.11
		c-6.3201-5.1-13.8301-8.51-21.61-10.68c0.5199-0.53,1.0499-1.06,1.6-1.59C1054.72,261.71,1072.25,260.59,1088.04,253.41z
		 M987.99,537.05c7.35,0.12,14.67,1.41,22.04,0.95c-2.44-12-5.19-23.95-8.11-35.84c-7.11,3.34-13.79,7.51-20.92,10.84
		c-12.61,7.04-25.62,13.38-38.04,20.79c1.64,0.41,3.29,0.87,5,1C961.32,535.35,974.65,536.32,987.99,537.05z M1002.37,444.02
		c0.29-9.18-5.19-17.82-12.8-22.63c-8.6-6.33-19.92-7.85-30.25-5.99c-11.87,2.19-23.2,10.58-26.25,22.65
		c-2.5,9,0.96,18.93,7.69,25.21c14.34,13.92,39.91,13.77,53.97-0.49C999.43,457.71,1002.62,451.03,1002.37,444.02z M979.08,389.8
		c0.4-2.24,0.88-4.64-0.18-6.78c-1.98-5.03-9.12-6.78-13.27-3.38c-3,2.14-4.12,6.25-3.01,9.71
		C967.97,390.41,973.62,389.48,979.08,389.8z M949.74,389.7c0.13-2.97,0.67-6.47-1.74-8.74c-3.3-4.26-10.59-4.06-13.61,0.41
		c-1.96,2.36-1.89,5.55-1.27,8.39C938.66,389.78,944.2,389.82,949.74,389.7z M941.69,308.45c2.29-12.68,1.25-26.55-5.27-37.91
		c-4.75-7.12-11.32-13.12-19.12-16.7c-6.68-3.1-13.9-5.01-21.18-5.94c-15.14-1.44-30.52-0.09-45.12,4.17
		c-7.95,2.38-15.9,5.15-22.94,9.61c11.83,5.83,25.1,7.38,37.92,9.72c-2.74,1.49-5.5,2.93-8.3,4.28c-4.57,2.19-8.27,5.72-12.47,8.49
		c-4.4,2.69-6.97,7.45-8.71,12.15c-3.7,12.5-0.97,26.39,6,37.27c3.92,5.36,9.51,10.07,16.36,10.76c8.34,1.34,15.86-3.24,23.31-6.19
		c16.82-7.44,34.28-13.89,52.56-16.58c1.44-0.45,3.36-0.22,4.42-1.44c0.25-3.9,0.04-7.87-1.01-11.64
		C939.31,308.47,940.49,308.46,941.69,308.45z M903.97,466.91c8.32-12.12,9.86-28.41,3.96-41.88c-7-17.04-26.62-27.98-44.78-23.98
		c-12.4,2.34-23.25,11.09-28.54,22.49c-6.12,11.85-5.76,26.66,0.27,38.47c3.77,8.01,10.56,14.33,18.28,18.5
		c8.8701,4.47,19.4301,5.1,28.95,2.52C890.8,480.09,898.97,474.75,903.97,466.91z"/>
	<path fill="#ffc894" d="M1177.6,1464.61c4.15-2.9,7.8-6.5599,12.35-8.87c-6.61,19.53-9.4399,40.04-12.6699,60.33
		c-7.4,48.3401-12.4601,97.0801-14.7101,145.92c-1.23-6.25-0.5299-12.67-1.33-18.97c-2.47-51.36-4.85-102.71-7.39-154.0601
		c-0.0499-2.75-0.5399-6.2,2.22-7.85C1163.39,1475.79,1170.49,1470.1899,1177.6,1464.61z"/>
	<path fill="#e7b484" d="M1174.7,294.06c-1.1799,11.55-2.12,23.14-3.2799,34.7c-8.4401-3.12-15.3-9.72-23.88-12.52
		c-0.39,2.96-0.6801,5.94-0.92,8.92c4.38,1.89,8.9301,3.34,13.3199,5.23c-0.6899,2.14-1.61,4.19-2.7899,6.1
		c-6.09-2.06-12.01-4.57-17.98-6.94c0.37-8.26,2.46-16.32,3.1499-24.55c8.13,3.59,15.3301,8.94,23.3401,12.79
		c0.25-5.33,1.02-10.61,1.36-15.92c-9.37,0.28-18.62,2.49-28.03,2.05c0.05-2.25,0.35-4.5,1.09-6.64
		C1151.66,296.74,1163.15,294.99,1174.7,294.06z"/>
	<path fill="#ffc894" d="M1171.28,790.02c0.02,1.54,1.0599,3.62-0.51,4.73c-2.5601,2-5.64,3.12-8.48,4.62
		c-26.24,14.13-52.62,28.02-78.9,42.09c-2.38,1.5099-5.5,2.44-6.73,5.21c-9,18.28-18.24,36.45-27.3101,54.69
		c-3.2999,6.34-5.84,13.02-8.36,19.69c-14.04,33.9-27.54,68.01-41.47,101.95c-5.56-9.59-9.79-19.9-15.12-29.61
		c-10.52-21.1-21.2-42.12-31.53-63.31c-3.12-3.9-7.7-6.3-11.59-9.33c-15.38-11.99-31.01-23.64-46.4901-35.5
		c-18.13-14.26-36.71-27.91-54.91-42.06c-3.01-2.28-6.36-4.33-8.42-7.59c-16.73-27.55-34.45-54.5-51.29-81.99
		c2.82-3.69,6.58-6.44,9.99-9.53c12.05-11.7,24.3701-23.1,36.76-34.43c12.08,1.11,24.03,3.37,36.07,4.93
		c18.55,2.64,37.09,5.28,55.65,7.85c7.78,0.95,15.55,3.24,23.44,2.18c35.64-4.02,71.32-7.8,106.98-11.64
		c6.2599-0.9,11.2-5.27,16.5699-8.27c16.49-9.8,32.87-19.81,49.4-29.53c9.1599,6.94,16.8099,15.81,25.71,23.14
		c3.79,3.51,7.25,7.38,11.33,10.6c2.5801,2.4,5.66,4.55,7.3301,7.75C1163.5699,741.07,1167.02,765.62,1171.28,790.02z
		 M1029.26,837.43c5.03-7.09,3.5599-16.29,3.12-24.42c-1.41-6.31-4.0699-13.79-10.2-16.77c-2.33-2.49-5.96-2.83-9.1-3.51
		c-11.05-0.26-22.19,6.32-26.78,16.48c-0.78,1.41-1.27,2.91-1.53,4.45l-31.21-1.22c0.72-5.23,2.13-10.39,3.75-15.37
		c6.28-18.08,15.69-34.92,26.38-50.73c-1.97-1.7-4.04-3.29-6.43-4.33c-10.65,15.55-19.96,32.14-26.35,49.91
		c-3.98,11.52-6.87,23.88-4.83,36.09c1.59,9.26,8,17.48,16.58,21.28c9.47,4.38,20.11,4.9,30.38,4.55c6.03,0.1299,12-1.14,17.72-2.97
		C1018.01,848.28,1025.26,844.27,1029.26,837.43z"/>
	<path fill="#FFFF8F" d="M1159.88,0h8.46c-7.8199,1.69-15.8099,2.71-23.37,5.43c-5.45,1.59-10.33,4.57-15.6799,6.43
		C1138.05,4.91,1149.42,3.04,1159.88,0z"/>
	<path fill="#EC5D5F" d="M1167.8101,882.97c0.7899,4.65-1.64,8.9301-4,12.73c-8.3201,8.04-20.3301,11.78-31.78,10.45
		c-7.42-0.45-14.67-3.92-18.9301-10.13c-2.66-6.01-0.8099-12.89,2.89-18.03c4.97-4.97,11.63-7.85,18.45-9.21
		c8.79-1.0699,18.1801-0.8199,26.04,3.71C1163.54,875.37,1167.8101,878.29,1167.8101,882.97z M1141.9,889.02
		c1.6699-4.34-3.55-9.11-7.7001-6.77c-2.95,1.18-4.5199,5.39-2.5299,8.03C1133.79,894.25,1140.98,893.66,1141.9,889.02z"/>
	<path fill="#FF97B0" d="M1134.2,882.25c4.15-2.34,9.37,2.43,7.7001,6.77c-0.92,4.64-8.11,5.23-10.23,1.2599
		C1129.6801,887.64,1131.25,883.43,1134.2,882.25z"/>
	<path fill="#7D8E98" d="M1096.01,1114.24c-1.39,0.28-2.78,0.54-4.13,0.84c0.2,0.3401,0.62,1.03,0.8199,1.37
		c-5.3099-0.87-10.2699,2.29-15.5199,1.3501C1082.91,1114.65,1089.71,1115.16,1096.01,1114.24z"/>
	<path fill="#f7a581" d="M1087.91,401.92c4.09,8.93,7.27,19.09,4.87,28.93c-1.41,5.72-3.37,11.39-6.63,16.34
		c-5.91,8.57-14.92,15.1-25.1801,17.27c-11.03,2.59-23.1-0.19-32.0699-7.08c-8.58-6.22-14.29-15.98-16.36-26.3
		c-0.48-5.32-0.54-10.73,0.09-16.04c2.32-10.37,7.8-20.52,16.86-26.47c4.63-3.61,10.25-5.65,15.9401-6.88
		c8.5299-1.11,17.5399-0.47,25.2,3.75C1077.87,389.07,1083.72,395.06,1087.91,401.92z"/>
	<path fill="#8d664b" d="M1075.0699,246.93c4.4501,1.86,9.0601,3.56,12.9701,6.48c-15.79,7.18-33.3201,8.3-50.14,11.54
		c-4.09,0.76-8.11,1.84-12.0601,3.08c-6.3199,1.95-12.59,4.28-18.2599,7.71c-5.87,3.97-10.57,9.36-15.95,13.92
		c-3.65,3.57-8.02,6.3-11.52,10.01c-1.86,0.27-3.71,0.5-5.55,0.85c-2.43-13.13-1.61-27.67,5.77-39.18
		c7.8-12.65,22.44-19.34,36.72-21.41c7.6201-0.85,15.33-1.88,22.98-0.73C1052.02,239.94,1063.88,242.56,1075.0699,246.93z"/>
	<path fill="#ebd2c1" d="M1067.6,284.33c5.8,7.77,6.41,18.12,5.04,27.41c-1.5701,8.86-4.89,17.9-11.6,24.18
		c-5.3201,4.77-13.13,7.31-20.1001,5.08c-6.62-2.09-12.8199-5.29-19.3599-7.61c-14.37-4.81-28.71-9.7-43.29-13.83
		c-2.59-0.89-5.59-1.28-7.62-3.22c-1.48-4.32,0.2-8.94,1.71-13.02c0.59-0.96,0.74-2.79,2.18-2.8c1.84-0.35,3.69-0.58,5.55-0.85
		c-1.12,3.82-1.92,7.81-1.38,11.81c2.57,1.04,5.35,1.3,8.07,1.78c11.57,2.12,22.65,5.99,33.53,10.38
		c4.95,1.99,9.85,4.1,14.7399,6.19c5.2201,2.41,11.39,3.46,16.8501,1.16c8.2899-3.34,13.1799-11.81,15.3999-20.09
		c2.25-9.03,2.0901-19.65-3.9399-27.24c-1.45-2.05-3.75-3.12-6.01-3.98c-8.8199-7.27-20.01-11.82-31.53-11.65
		c3.9501-1.24,7.9701-2.32,12.0601-3.08c-0.55,0.53-1.0801,1.06-1.6,1.59c7.7799,2.17,15.2899,5.58,21.61,10.68
		C1061.02,279.75,1065.23,280.92,1067.6,284.33z"/>
	<path fill="#ffc894" d="M1111.79,571.63c-16.3,26.33-33.0601,52.39-49.7101,78.5c-61.71-2.94-123.42-5.95-185.1199-8.97
		c-3.6-0.11-7.35,0.09-10.71-1.41c-6.43-2.77-12.62-6.08-18.92-9.12c-13.83-7.33-28.03-13.94-41.96-21.06
		c-7.18-3.72-14.74-6.81-21.36-11.5c22.48-17.03,44.95-34.09,67.5-51.05c3.12,13.0099,6.24,26.02,9.14,39.08
		c0.58,1.69,0.78,4.59,3.3,4.07c46.33,0.06,92.67,0.05,139.01,0.04c11.64-0.17,23.28,0.35,34.91-0.2401
		c4.04-15.66,6.16-31.74,10.02-47.45C1069.1899,552.22,1090.52,561.85,1111.79,571.63z"/>
	<path fill="#FFFFFE" d="M1063.38,283.66c6.03,7.59,6.1899,18.21,3.9399,27.24c-2.22,8.28-7.11,16.75-15.3999,20.09
		c-5.4601,2.3-11.63,1.25-16.8501-1.16c-4.8899-2.09-9.7899-4.2-14.7399-6.19l0.33-0.8c1.09,0.44,2.21,0.77,3.3701,0.99
		c7.14,1.59,14.97-1.76,19.0399-7.77c4.25-5.98,4.4301-14.51,0.4701-20.68c-2.66-4.54-7.48-7.15-12.3101-8.77
		c8.6-2.68,17.04-6.27,26.14-6.93C1059.63,280.54,1061.9301,281.61,1063.38,283.66z"/>
	<path fill="#6fa70e" d="M1043.54,295.38c3.96,6.17,3.7799,14.7-0.4701,20.68c-4.0699,6.01-11.8999,9.36-19.0399,7.77
		c-1.16-0.22-2.28-0.55-3.3701-0.99c-5.56-2.23-9.98-7.2-11.31-13.08c-1.27-4.72-0.16-9.72,1.9901-14
		c4.23-6.62,12.09-10.26,19.89-9.15C1036.0601,288.23,1040.88,290.84,1043.54,295.38z M1035.75,301.98
		c2.21-2.82,0.1899-7.83-3.72-6.89c-2.86-0.17-3.41,2.89-3.28,5.11c-0.62-1.23-0.87-2.58-1.22-3.87
		c-2.2001,0.7-4.64,1.2-6.1801,3.06c-4.49,4.45-2.04,13.61,4.51,14.51C1032.45,315.51,1038.39,308.16,1035.75,301.98z"/>
	<path fill="#f3cca6" d="M1057.37,279.68c-9.1,0.66-17.54,4.25-26.14,6.93c-7.8-1.11-15.66,2.53-19.89,9.15
		c-11.07,4.81-21.72,10.52-32.61,15.72c-0.54-4,0.26-7.99,1.38-11.81c3.5-3.71,7.87-6.44,11.52-10.01
		c5.38-4.56,10.08-9.95,15.95-13.92c5.67-3.43,11.94-5.76,18.2599-7.71C1037.36,267.86,1048.55,272.41,1057.37,279.68z"/>
	<path fill="#FEFFFD" d="M1032.03,295.09c3.9099-0.94,5.9299,4.07,3.72,6.89c-2.35,1.47-6.16,1.35-7-1.78
		C1028.62,297.98,1029.17,294.92,1032.03,295.09z"/>
	<path fill="#000001" d="M1035.75,301.98c2.64,6.18-3.3,13.53-9.89,11.92c-6.55-0.9-9-10.06-4.51-14.51
		c1.54-1.86,3.98-2.36,6.1801-3.06c0.35,1.29,0.6,2.64,1.22,3.87C1029.59,303.33,1033.4,303.45,1035.75,301.98z"/>
	<path fill="#844f2c" d="M1032.38,813.01c0.4399,8.13,1.91,17.33-3.12,24.42c-4,6.84-11.25,10.85-18.5,13.44
		c-5.72,1.83-11.69,3.1-17.72,2.97c-10.27,0.35-20.91-0.17-30.38-4.55c-8.58-3.8-14.99-12.02-16.58-21.28
		c-2.04-12.21,0.85-24.57,4.83-36.09c6.39-17.77,15.7-34.36,26.35-49.91c2.39,1.04,4.46,2.63,6.43,4.33
		c-10.69,15.81-20.1,32.65-26.38,50.73c-1.62,4.98-3.03,10.14-3.75,15.37c-0.66,4.7-0.75,9.45,0.06,14.17
		c0.86,6.07,4.52,11.8,9.94,14.79c9.13,5.39,20.04,5.7,30.36,5.42c9.63,0.19,19.76-2.32,27.15-8.74c4.36-3.68,6.96-9.34,6.79-15.05
		c0.1901-6.78-0.11-14.05-4.05-19.85c-1.6-2.63-4.31-4.19-6.58-6.14c-0.51-0.44-1.53-1.32-2.03-1.76c2.32,0.3101,4.65,0.6,6.98,0.96
		C1028.3101,799.22,1030.97,806.7,1032.38,813.01z"/>
	<path fill="#ffc894" d="M1023.81,803.18c3.94,5.8,4.2401,13.07,4.05,19.85c0.17,5.71-2.4299,11.3701-6.79,15.05
		c-7.39,6.42-17.52,8.93-27.15,8.74c-10.32,0.28-21.23-0.03-30.36-5.42c-5.42-2.9901-9.08-8.72-9.94-14.79
		c-0.81-4.72-0.72-9.47-0.06-14.17l31.21,1.22c-0.51,3.07-0.1,6.3,0.76,9.3c-0.13-3-0.45-6.04,0.1299-9
		c4.28-12.4901,18.77-20.23,31.57-16.92C1019.5,798.99,1022.21,800.55,1023.81,803.18z"/>
	<path fill="#FFFFFE" d="M1020.66,322.84l-0.33,0.8c-10.88-4.39-21.96-8.26-33.53-10.38c-2.72-0.48-5.5-0.74-8.07-1.78
		c10.89-5.2,21.54-10.91,32.61-15.72c-2.15,4.28-3.26,9.28-1.9901,14C1010.68,315.64,1015.1,320.61,1020.66,322.84z"/>
	<path fill="#8d664b" d="M1013.08,792.73c3.14,0.68,6.77,1.02,9.1,3.51c-2.33-0.36-4.66-0.65-6.98-0.96
		c0.5,0.44,1.52,1.32,2.03,1.76c-12.8-3.31-27.29,4.43-31.57,16.92c-0.58,2.96-0.2599,6-0.1299,9c-0.86-3-1.27-6.23-0.76-9.3
		c0.26-1.54,0.75-3.04,1.53-4.45C990.89,799.05,1002.03,792.47,1013.08,792.73z"/>
	<path fill="#ffc894" d="M1010.03,538c-7.3701,0.46-14.69-0.83-22.04-0.95c-13.34-0.73-26.67-1.7-40.03-2.26
		c-1.71-0.13-3.36-0.59-5-1c12.42-7.41,25.43-13.75,38.04-20.79c7.13-3.33,13.81-7.5,20.92-10.84
		C1004.84,514.05,1007.59,526,1010.03,538z"/>
	<path fill="#f3cca6" d="M989.57,421.39c7.61,4.81,13.09,13.45,12.8,22.63c0.25,7.01-2.94,13.69-7.64,18.75
		c-14.06,14.26-39.63,14.41-53.97,0.49c-6.73-6.28-10.19-16.21-7.69-25.21c3.05-12.07,14.38-20.46,26.25-22.65
		C969.65,413.54,980.97,415.06,989.57,421.39z M990.28,444.97c0.96-4.99-0.96-10.22-4.4901-13.77c-5.68-5.87-14.67-7.76-22.45-5.8
		c-8.91,1.91-16.89,10.66-14.71,20.16c2.73,12.01,17.52,17.22,28.37,13.41C983.39,457.02,989.19,451.77,990.28,444.97z"/>
	<path fill="#a13939" d="M985.79,431.2c3.53,3.55,5.45,8.78,4.4901,13.77c-1.09,6.8-6.89,12.05-13.28,14
		c-10.85,3.81-25.64-1.4-28.37-13.41c-2.18-9.5,5.8-18.25,14.71-20.16C971.12,423.44,980.11,425.33,985.79,431.2z"/>
	<path fill="#914F12" d="M978.9,383.02c1.06,2.14,0.58,4.54,0.18,6.78c-5.46-0.32-11.11,0.61-16.46-0.45
		c-1.11-3.46,0.01-7.57,3.01-9.71C969.78,376.24,976.92,377.99,978.9,383.02z"/>
	<path fill="#914F12" d="M948,380.96c2.41,2.27,1.87,5.77,1.74,8.74c-5.54,0.12-11.08,0.08-16.62,0.06
		c-0.62-2.84-0.69-6.03,1.27-8.39C937.41,376.9,944.7,376.7,948,380.96z"/>
	<path fill="#ffd9b5" d="M950.62,1720.84c-0.55,21.1901-1.95,42.35-2.44,63.54c-17.76,7.3099-35.79,14-53.64,21.12
		c-2.94,1.1899-4.91,3.79-7.12,5.95c-6.14,6.17-12.29,12.3401-18.48,18.4601c-2.59,2.4-3.75,5.8199-5.14,8.98
		c-6.51,14.8099-13.28,29.52-19.76,44.35c-9.83,3.21-19.67,6.4-29.57,9.39c-2.47,9.01-3.54,18.33-5.86,27.37H769.3
		c-1.76-10.17-4.32-20.1801-6.44-30.27c-2.78,7.15-4.4,14.6801-6.85,21.96c-5.51-3.0599-10.93-6.25-16.32-9.48
		c1.68-8.4199,3.73-16.76,5.19-25.21c-3.89,4.8199-7.77,9.64-11.85,14.3c-4.69-4.3-9.07-8.9301-13.5601-13.42
		c3.71-7.45,7.85-14.6801,11.53-22.15c-5.8,4.53-11.22,9.52-16.98,14.09c-2.19-5.96-4.61-11.83-6.72-17.8099
		c4.31-4.27,8.65-8.52,12.82-12.92c-4.76,1.5901-9.45,3.4-14.23,4.9401c-0.77-6.51-1.69-13-2.47-19.49
		c25.83-7.28,51.72-14.36,77.55-21.5901c1.23-0.26,2.1801-1.0699,2.86-2.0699c13.89-19.8,27.87-39.53,41.81-59.29
		c3.14-4.89,7.15-9.25,9.77-14.45c-4.06-27.4301-9-54.75-13.45-82.14c-8.32-49.35-16.65-98.71-24.77-148.09
		c-18.26-10.7101-25.6-33.78-23-53.9401c1.91-15.6599,10.04-32.1699,25.07-38.86c13.73-28.09,27.53-56.17,41.89-83.95
		c34.66,7.1799,69.3199,14.4099,103.96,21.76c-7.81,11.48-16.3,22.47-24.37,33.7699c-13.19,18.13-26.37,36.26-39.58,54.3701
		c-1.74,2.5299-4.03,4.8099-5.04,7.7699c1.14,2.11,2.7,3.9701,4.13,5.92c11.11,14.98,22.1,30.0601,33.2,45.0601
		c-1.61,69.4399-3.67,138.8799-5.29,208.33C922.26,1705.13,936.48,1712.92,950.62,1720.84z M897.77,1563.97
		c0.22-22.1,1.56-44.21,1.59-66.28c-3.36-5.2-7.61-9.7799-11.23-14.7999c-6.84-7.71-12.29-16.79-20.46-23.22
		c-0.68,4.0199,0.49,8.01,0.81,12.0199c5.61,48.76,10.9,97.5601,16.55,146.3201c2.73,24.67,5.3,49.37,8.46,73.99
		c1.02-6.62,0.49-13.34,0.79-20c0.79-10.34,0.65-20.71,0.9399-31.05c0.85-12.63,0.6201-25.2999,1.13-37.9399
		C897.33,1590.01,896.66,1576.96,897.77,1563.97z M811.71,1471.73c9.2599-10.87,8.04-30.0699-4.15-38.2999
		c-3.64-2.0801-8.32-2.3501-12.24-1.01c-4.21,1.7899-7.95,4.9399-9.69,9.25c-3.57,6.49-3.56,14.3199-1.75,21.34
		c1.94,7.04,7.61,13.24,15.08,14.23C803.71,1477.28,808.69,1475.54,811.71,1471.73z"/>
	<path fill="#8d664b" d="M936.42,270.54c6.52,11.36,7.56,25.23,5.27,37.91c-1.2,0.01-2.38,0.02-3.55,0.05
		c-3.1-2.06-6.19-4.13-9.09-6.44c-6.81-5.55-12.74-12.1-19.77-17.37c-10.3101-6.56-22.4301-9.36-34.23-11.95
		c-2.99-0.66-6.03-1.06-9.07-1.34c-12.82-2.34-26.09-3.89-37.92-9.72c7.04-4.46,14.99-7.23,22.94-9.61
		c14.6-4.26,29.98-5.61,45.12-4.17c7.28,0.93,14.5,2.84,21.18,5.94C925.1,257.42,931.67,263.42,936.42,270.54z"/>
	<path fill="#ebd2c1" d="M938.14,308.5c1.05,3.77,1.26,7.74,1.01,11.64c-1.06,1.22-2.98,0.99-4.42,1.44
		c-18.28,2.69-35.74,9.14-52.56,16.58c-7.45,2.95-14.97,7.53-23.31,6.19c-6.85-0.69-12.44-5.4-16.36-10.76
		c-6.97-10.88-9.7-24.77-6-37.27c1.74-4.7,4.31-9.46,8.71-12.15c4.2-2.77,7.9-6.3,12.47-8.49c2.8-1.35,5.56-2.79,8.3-4.28
		c3.04,0.28,6.08,0.68,9.07,1.34c-9.62-0.58-17.81,5.6-25.23,10.92c-7.42,4.62-9.74,14.09-9.33,22.31
		c0.62,9.77,4.28,20.13,12.4,26.15c5.14,3.93,12.26,4.58,18.25,2.34c4.99-1.91,9.88-4.1,14.77-6.28c-1.08-0.17-2.15-0.34-3.2-0.51
		c4.92,0.63,9.7-0.88,13.88-3.45c11.0099-4.36,22.59-7.22,34.31-8.84c0.87-4.54,0.2-9.19-1.85-13.32
		C931.95,304.37,935.04,306.44,938.14,308.5z"/>
	<path fill="#f3cca6" d="M929.05,302.06c2.05,4.13,2.72,8.78,1.85,13.32c-9.38-4.9-18.96-9.41-28.4301-14.12l0.41,1.63
		c-1.85-5.38-6.23-9.36-11.27-11.76c-4.94-3.18-10.87,0.8-16-1.53c-8.29-2.97-16.79-6.69-25.79-5.94
		c7.42-5.32,15.61-11.5,25.23-10.92c11.8,2.59,23.92,5.39,34.23,11.95C916.31,289.96,922.24,296.51,929.05,302.06z"/>
	<path fill="#FEFEFD" d="M930.9,315.38c-11.72,1.62-23.3,4.48-34.31,8.84c6.02-5.17,8.91-13.68,6.29-21.33l-0.41-1.63
		C911.94,305.97,921.52,310.48,930.9,315.38z"/>
	<path fill="#f7a581" d="M907.93,425.03c5.9,13.47,4.36,29.76-3.96,41.88c-5,7.84-13.17,13.18-21.86,16.12
		c-9.52,2.58-20.08,1.95-28.95-2.52c-7.72-4.17-14.5099-10.49-18.28-18.5c-6.03-11.81-6.39-26.62-0.27-38.47
		c5.29-11.4,16.14-20.15,28.54-22.49C881.31,397.05,900.93,407.99,907.93,425.03z"/>
	<path fill="#6fa70e" d="M902.88,302.89c2.62,7.65-0.27,16.16-6.29,21.33c-4.1801,2.57-8.96,4.08-13.88,3.45
		c-0.26-0.03-0.52-0.07-0.78-0.12c-8.81-1.24-15.9-9.67-15.62-18.56c-0.15-6.6,3.69-12.97,9.38-16.24
		c4.65-3.08,10.71-3.21,15.92-1.62C896.65,293.53,901.03,297.51,902.88,302.89z M893.68,305.38c-0.09-1.96,0.92-4.66-1.06-5.95
		c-1.87-1.71-4.56-0.84-6.16,0.74c-5.41-0.43-10.84,4.12-10.06,9.78c0.42,6.65,9.29,10.36,14.2,5.79c3.26-2.4,3.42-6.61,2.81-10.25
		L893.68,305.38z"/>
	<path fill="#ffc894" d="M899.36,1497.6899c-0.03,22.0701-1.37,44.1801-1.59,66.28c-1.11,12.99-0.44,26.04-1.42,39.04
		c-0.5099,12.64-0.28,25.3099-1.13,37.9399c-0.29,10.3401-0.15,20.7101-0.9399,31.05c-0.3,6.66,0.23,13.38-0.79,20
		c-3.16-24.62-5.73-49.3199-8.46-73.99c-5.65-48.76-10.94-97.5601-16.55-146.3201c-0.32-4.0099-1.49-8-0.81-12.0199
		c8.17,6.4299,13.62,15.51,20.46,23.22C891.75,1487.91,896,1492.49,899.36,1497.6899z"/>
	<path fill="#FCFEFF" d="M892.62,299.43c1.98,1.29,0.97,3.99,1.06,5.95l-0.27,0.11c-1.86,0.92-4.37,1.91-6.06,0.14
		c-1.72-1.29-1.17-3.65-0.89-5.46C888.06,298.59,890.75,297.72,892.62,299.43z"/>
	<path fill="#000102" d="M893.41,305.49c0.61,3.64,0.45,7.85-2.81,10.25c-4.91,4.57-13.78,0.86-14.2-5.79
		c-0.78-5.66,4.65-10.21,10.06-9.78c-0.28,1.81-0.83,4.17,0.89,5.46C889.04,307.4,891.55,306.41,893.41,305.49z"/>
	<path fill="#FFFFFF" d="M875.61,289.6c5.13,2.33,11.06-1.65,16,1.53c-5.21-1.59-11.27-1.46-15.92,1.62
		c-5.69,3.27-9.53,9.64-9.38,16.24c-0.28,8.89,6.81,17.32,15.62,18.56c0.26,0.05,0.52,0.09,0.78,0.12c1.05,0.17,2.12,0.34,3.2,0.51
		c-4.89,2.18-9.78,4.37-14.77,6.28c-5.99,2.24-13.11,1.59-18.25-2.34c-8.12-6.02-11.78-16.38-12.4-26.15
		c-0.41-8.22,1.91-17.69,9.33-22.31C858.82,282.91,867.32,286.63,875.61,289.6z"/>
	<path fill="#EC5D5F" d="M866.54,901.49c3.84,3.38,7.65,8.06,7.41,13.47c0.25,5.2599-3.91,9.34-7.61,12.49
		c-8.4301,4.56-18.75,6.41-28.02,3.41c-3.93-1.2-8.1-2.23-11.28-4.97c-4.63-3.51-9.4-8.1-9.48-14.34c-0.25-7.34,6-12.99,12.55-15.06
		c2.73-0.77,5.48-1.48,8.28-1.98C848.17,893.28,858.54,895.65,866.54,901.49z M848.03,918.61c3.5099,1.09,7.2-2.02,6.87-5.64
		c0.22-4.22-5.1801-6.96-8.55-4.5699C842.12,910.68,843.36,917.77,848.03,918.61z"/>
	<path fill="#FF97B0" d="M854.9,912.97c0.33,3.6201-3.36,6.73-6.87,5.64c-4.67-0.84-5.91-7.93-1.6801-10.21
		C849.72,906.01,855.12,908.75,854.9,912.97z"/>
	<path fill="#f3cca6" d="M807.56,1433.4301c12.19,8.23,13.41,27.4299,4.15,38.2999c-3.02,3.8101-8,5.55-12.75,5.51
		c-7.47-0.99-13.14-7.1899-15.08-14.23c-1.81-7.02-1.82-14.85,1.75-21.34c1.74-4.3101,5.48-7.4601,9.69-9.25
		C799.24,1431.08,803.92,1431.35,807.56,1433.4301z"/>
	<path fill="#ffd9b5" d="M778.41,390.27c-0.02,0.13-0.04,0.26-0.05,0.38C778.36,390.52,778.38,390.4,778.41,390.27z"/>
	<path fill="#ffd9b5" d="M769.09,364.06l0.34,1.54c-10.68-1.42-21.4-2.46-32.08-3.9c-4.1-30.77-8.08-61.55-12.02-92.34
		c14.31,4,28.46,8.6,42.83,12.39c-1.03,4.7-1.54,9.49-2.4,14.22c-6.92-0.09-13.73-1.51-20.64-1.85c1.05,11.63,2.07,23.26,3.19,34.88
		c5.44-2.34,10.1-6.15,15.64-8.27c0.15,2.89,0.28,5.79,0.4,8.69c0.17-3.31,0.54-6.61,0.9301-9.9
		C765.24,334.44,765.11,349.54,769.09,364.06z"/>
	<path fill="#e7b484" d="M768.16,281.75l0.97,0.23c-1.59,6.53-1.74,13.28-2.77,19.9c-0.9,5.84-0.79,11.75-1.08,17.64
		c-0.39,3.29-0.76,6.59-0.9301,9.9c-0.12-2.9-0.25-5.8-0.4-8.69c-5.54,2.12-10.2,5.93-15.64,8.27c-1.12-11.62-2.14-23.25-3.19-34.88
		c6.91,0.34,13.72,1.76,20.64,1.85C766.62,291.24,767.13,286.45,768.16,281.75z M764.82,311.72c0.16-2.84,0.16-5.69-0.01-8.53
		c-4.07-0.7-8.18-1.52-12.33-1.13c0.55,5.25,0.94,10.52,1.73,15.74C757.9,316.06,761.37,313.9,764.82,311.72z"/>
	<path fill="#CD8B55" d="M764.81,303.19c0.17,2.84,0.17,5.69,0.01,8.53c-3.45,2.18-6.92,4.34-10.61,6.08
		c-0.79-5.22-1.18-10.49-1.73-15.74C756.63,301.67,760.74,302.49,764.81,303.19z"/>
	<path fill="#f3cca6" d="M748.3,613.68c5.08,4.02,6.54,11.25,4.78,17.29c-1.68,7.54-7.14,13.46-12.88,18.29
		c-10.52,8.35-24.59,12.64-37.92,10.3c-5.91-0.89-11.11-4.57-14.3101-9.55c-3.71-6.59-2.05-14.96,1.96-21.02
		c6.76-10.71,18.41-17.39,30.45-20.49C729.78,606.85,740.89,606.69,748.3,613.68z"/>
	<path fill="#844f2c" d="M706.03,822.58c1.11,5.73,2.25,11.54,1.72,17.42c0.07,3.94-2.31,8.05-6.1,9.41
		c-5.72,1.4-11.3-0.99-16.61-2.8c-3.13,1.57-6.45,3.35-10.07,2.87c-5.42-0.57-9.75-4.31-13.14-8.3c0.34-0.72,1.03-2.16,1.38-2.88
		c2.44,2.74,5.05,5.59,8.5099,7.05c2.95,0.9,6.08,0.28,9.09-0.05c-0.39-0.57-1.16-1.71-1.54-2.29c0.69-0.1,2.08-0.29,2.78-0.39
		c5.01-0.35,7.38-5.58,9.8-9.3c3.91-7.45,4.31-16.11,3.59-24.33c-0.63-3.36-1.33-6.72-1-10.15c-3.71,11.67-9.63,23.55-20.12,30.54
		c-4.11,0.96-8.33,1.25-12.52,0.89c-1.81-1.96-3.81-3.71-5.81-5.45c-1.51-5.26,0.44-11.53,5.15-14.48
		c1.92-1.35,4.15-0.1801,6.12,0.35c0.18,0.56,0.54,1.68,0.72,2.25c-1.8-0.79-3.99-2.39-5.88-1c-3.36,2.67-4.0699,7.19-3.77,11.23
		c0.73,0.89,1.46,1.8,2.19,2.72c2.58-0.24,4.75-1.66,6.83-3.09c-0.88,1.47-1.67,3.01-2.45,4.54c3.17-0.47,9.12,0.12,9.11-4.42
		c0.37,0.16,1.09,0.46,1.45,0.62c8.58-7.3,12.09-18.34,16.13-28.43c0.92-0.24,2.7599-0.73,3.68-0.97
		C699.36,803.41,702.41,813.11,706.03,822.58z M703.3,843.13c1.28-6.78,0.34-13.81-1.99-20.27c-0.56-1.27-1.07-2.55-1.54-3.83
		c-0.57,6.0601-2.07,12.17-5.22,17.44c-1.56,2.82-4.17,4.89-5.57,7.83C693.38,846.13,700.31,848.36,703.3,843.13z"/>
	<path fill="#FEFFFB" d="M689.01,827.73c0.94,1.85,1.89,3.72,2.84,5.59c-2.42,3.72-4.79,8.95-9.8,9.3
		c-0.85-2.17-2.05-4.37-1.77-6.77c-0.01-2.94,2.29-5.07,3.92-7.2599C685.79,828.25,687.4,827.99,689.01,827.73z"/>
	<path fill="#DFDB34" d="M684.96,826.37l-0.76,2.22c-1.63,2.1899-3.93,4.3199-3.92,7.2599c-0.28,2.4,0.92,4.6,1.77,6.77
		c-0.7,0.1-2.09,0.29-2.78,0.39C675.02,837.1,679.22,829.42,684.96,826.37z"/>
	<path fill="#DDD73E" d="M663.21,838.3c-0.35,0.72-1.04,2.16-1.38,2.88c-3.29-3.23-2.41-8.03-2.33-12.16
		c-1.41-1.19-2.74-2.51-3.51-4.2c2,1.74,4,3.49,5.81,5.45C661.61,833.01,661.94,835.81,663.21,838.3z"/>
	<path fill="#f3cca6" d="M627.96,737.03c0.49,2.15,0.72,4.36,0.9,6.57c-66.63,9.84-133.19,20.25-199.79,30.26
		c-5.38,0.57-10.66,2.02-16.09,1.99c11.17-5.19,22.99-8.83,34.35-13.58c54.59-21.03,109.12-42.21,163.7-63.27
		c2.8-1.21,5.64-2.37,8.65-2.98C622.48,709.68,625.08,723.38,627.96,737.03z"/>
	<path fill="#ffd9b5" d="M624.57,675.12l-4.89,20.9c-3.01,0.61-5.85,1.77-8.65,2.98c-54.58,21.06-109.11,42.24-163.7,63.27
		c-11.36,4.75-23.18,8.39-34.35,13.58l-14.31-22.24c1.1-2.94,1.93-5.95,2.61-8.99c7.29-29.19,17.55-58.76,37.47-81.89
		c11.74-13.53,27.73-23.59,45.38-27.17c19.72-4.09,40.18-1.34,59.37,4.1c22.63,6.32,44.04,16.29,64.85,27.07
		C613.8,669.45,618.92,672.81,624.57,675.12z"/>
	<path d="M598.57,325.88c2.77,17.51,3.6,35.62-0.02,53.06c-2.62,11.91-7.77,24.36-18.32,31.32c-8.52,5.68-19.64,5.7-29.01,2.22
		c-15.59-5.8-28.02-17.59-38.6-30.07c-20.12-24.67-33.79-54.16-42.15-84.75c-5.63-21.62-8.74-44.26-5.91-66.55
		c1.23-8.68,3.37-17.34,7.48-25.13c3.79-7.17,9.62-13.6,17.32-16.57c8.42-3.38,18-2.15,26.2,1.29
		c12.15,5.08,22.37,13.84,31.24,23.41c12.02,13.19,21.72,28.34,29.7,44.26C587.04,279.65,594.68,302.43,598.57,325.88z"/>
	<path fill="#333333" d="M551.22,412.48c-4.0099,7.28-9.93,13.98-17.9399,16.85c-8,3.07-16.94,1.94-24.77-1.09
		c-16-6.56-28.71-19.02-39.38-32.31c-18.92-24.12-31.93-52.54-39.97-82.03c-5.94-22.99-9.23-47.22-5.23-70.83
		c1.37-7.76,3.74-15.4,7.59-22.31c4.19-7.37,10.81-13.76,19.17-15.99c7.03-2.05,14.48-0.93,21.35,1.21
		c-4.11,7.79-6.25,16.45-7.48,25.13c-2.83,22.29,0.28,44.93,5.91,66.55c8.36,30.59,22.03,60.08,42.15,84.75
		C523.2,394.89,535.63,406.68,551.22,412.48z"/>
	<path d="M508.51,428.24c-3.39,5.56-7.79,10.72-13.65,13.75c-7.99,4.33-17.73,4.13-26.14,1.17c-12.14-4.22-22.42-12.46-31.34-21.52
		c-14.15-14.58-25.12-31.95-34.01-50.14c-8.02,3.08-16.05,6.1-24.05,9.2c-6.57,2.56-13.27,4.74-19.77,7.46
		c-7.16,2.86-14.41,5.48-21.57,8.35c-1.65,0.57-3.28,1.17-4.9,1.79c0.02-0.66,0.04-1.31,0.06-1.97c0.43-13.78,0.91-27.57,1.64-41.32
		c0.38-0.2,1.14-0.6,1.52-0.8c17.59-6.62,35.14-13.37,52.7-20.07c-7.33-25.51-11.47-52.69-6.52-79.04
		c2.55-12.48,7.77-25.65,18.92-32.82c8.94-5.82,20.5-5.29,30.12-1.52c-3.85,6.91-6.22,14.55-7.59,22.31
		c-4,23.61-0.71,47.84,5.23,70.83c8.04,29.49,21.05,57.91,39.97,82.03C479.8,409.22,492.51,421.68,508.51,428.24z"/>
	<path fill="#FFFEF4" d="M359.55,388.16c-3.51,2.05-7.24,3.65-10.98,5.22c-3.42,1.38-6.74,3.56-10.59,3.13
		C345.14,393.64,352.39,391.02,359.55,388.16z"/>
	<path fill="#ffd9b5" d="M335.36,336.35c0.23,5.96,0.84,11.9,0.94,17.86c-0.38,0.2-1.14,0.6-1.52,0.8
		c-0.73,13.75-1.21,27.54-1.64,41.32l-5.54-0.17c0-4.97-6.1-8.66-10.47-5.91c-4.25,2.16-4.79,8.83-0.82,11.57
		c1.52,1.39,3.5,1.78,5.37,1.43l0.91,3.39c-3.44,0.92-6.86,1.85-10.38,2.39c-0.29-0.56-0.88-1.69-1.17-2.25
		c-5.77-12.33-10.57-25.12-16.71-37.27c3.53,13.13,8.3,25.91,12.1,38.97c0.22,0.83,0.43,1.67,0.64,2.51
		c-6.39,2.7-12.98,4.96-19.66,6.83c-0.41-0.76-0.81-1.52-1.2-2.28c-4.89-10.43-9.24-21.1-13.83-31.66
		c2.38,11.55,5.61,22.9,8.14,34.41c0.19,1.19,0.32,2.37,0.48,3.57c-7.02,2.6-14.08,5.07-21.19,7.38c-0.65-0.75-1.29-1.5-1.91-2.25
		c-5-8.62-9.55-17.49-14.49-26.14c2.59,9.56,5.42,19.05,8.07,28.59c0.22,1.42,0.35,2.86,0.51,4.31c-5.8,3.74-12.42,6.26-17.53,11.02
		c-1.55-2.34-3.05-4.71-4.51-7.1c-7.29-11.55-14.7-23.02-22.18-34.44c-5.6-8.66-11.32-17.24-16.67-26.05
		C239.16,363.48,287.26,349.92,335.36,336.35z M290.49,410.51c4.44,3.09,11.3-1.13,10.36-6.52c0.21-5.08-6.43-8.34-10.48-5.45
		C286.05,401.01,286.07,408.15,290.49,410.51z M271.92,417.95c2.27-5.48-4.46-11.51-9.65-8.6c-4.31,1.8-5.33,8.11-1.91,11.25
		C263.64,424.27,270.54,422.68,271.92,417.95z M244.77,429.06c0.77-5.33-5.87-9.35-10.33-6.48c-4.59,2.34-4.7,9.71-0.07,12.07
		C238.51,437.45,244.94,434.15,244.77,429.06z"/>
	<path fill="#ffc894" d="M333.29,404.29c-2.57,3.25-6.48,4.85-9.9,6.99c-9.63,5.78-19.82,10.68-29.09,17.03
		c0.38,7.28,2.83,14.33,3.64,21.59c-7.16-4.38-13.9-9.46-21.12-13.73c-3.18-0.16-6.1,1.5-9.03,2.51c-9.99,3.76-19.92,7.7-30.1,10.92
		c-1.07-1.61-2.16-3.22-3.23-4.83c5.11-4.76,11.73-7.28,17.53-11.02c-0.16-1.45-0.29-2.89-0.51-4.31c2.14-0.81,4.28-1.63,6.42-2.45
		c0.62,0.75,1.26,1.5,1.91,2.25c7.11-2.31,14.17-4.78,21.19-7.38c-0.16-1.2-0.29-2.38-0.48-3.57c1.98-0.69,4.13-1.24,5.69-2.75
		c0.39,0.76,0.79,1.52,1.2,2.28c6.68-1.87,13.27-4.13,19.66-6.83c-0.21-0.84-0.42-1.68-0.64-2.51c1.54-0.57,3.07-1.14,4.61-1.7
		c0.29,0.56,0.88,1.69,1.17,2.25c3.52-0.54,6.94-1.47,10.38-2.39C326.12,405.7,329.65,404.77,333.29,404.29z"/>
	<path fill="#FFFEFD" d="M327.6,396.16c0,0.27-0.01,0.54-0.05,0.81c-0.14,3.24-2.87,5.71-5.87,6.28c-1.87,0.35-3.85-0.04-5.37-1.43
		c-3.97-2.74-3.43-9.41,0.82-11.57C321.5,387.5,327.6,391.19,327.6,396.16z"/>
	<path fill="#060000" d="M311.04,406.78c-1.54,0.56-3.07,1.13-4.61,1.7c-3.8-13.06-8.57-25.84-12.1-38.97
		C300.47,381.66,305.27,394.45,311.04,406.78z"/>
	<path fill="#FEFEFD" d="M300.85,403.99c0.94,5.39-5.92,9.61-10.36,6.52c-4.42-2.36-4.44-9.5-0.12-11.97
		C294.42,395.65,301.06,398.91,300.85,403.99z"/>
	<path fill="#030000" d="M286.21,415.54c-1.56,1.51-3.71,2.06-5.69,2.75c-2.53-11.51-5.76-22.86-8.14-34.41
		C276.97,394.44,281.32,405.11,286.21,415.54z"/>
	<path fill="#FFFEFD" d="M262.27,409.35c5.19-2.91,11.92,3.12,9.65,8.6c-1.38,4.73-8.28,6.32-11.56,2.65
		C256.94,417.46,257.96,411.15,262.27,409.35z"/>
	<path fill="#030000" d="M257.9,426.99c-2.14,0.82-4.28,1.64-6.42,2.45c-2.65-9.54-5.48-19.03-8.07-28.59
		C248.35,409.5,252.9,418.37,257.9,426.99z"/>
	<path fill="#FFFEFD" d="M234.44,422.58c4.46-2.87,11.1,1.15,10.33,6.48c0.17,5.09-6.26,8.39-10.4,5.59
		C229.74,432.29,229.85,424.92,234.44,422.58z"/>
	<path d="M207.77,403.23c7.48,11.42,14.89,22.89,22.18,34.44c-9.62,3.61-19.21,7.32-28.82,10.95c7,24.31,11,50.06,7.23,75.28
		c-2.21,13.4-7.04,27.75-18.55,35.97c-7.62,5.59-17.67,5.92-26.58,3.87c1.18-4.69,3.57-8.96,4.67-13.66
		c5.05-19.51,3.94-40.06,0.61-59.76c-5.18-28.65-15.62-56.35-30.61-81.31c-9.44-15.34-20.65-29.86-34.82-41.12
		c-6.58-5.28-14.11-9.26-21.99-12.26c4-7.24,10.03-13.74,18.02-16.46c10.23-3.62,21.5-0.8,30.75,4.2
		c11.29,6.09,20.8,14.98,29.12,24.64c11.21,13.06,20.23,27.86,27.76,43.31C193.73,408.57,200.78,405.99,207.77,403.23z"/>
	<path fill="#333333" d="M168.51,490.32c3.33,19.7,4.44,40.25-0.61,59.76c-1.1,4.7-3.49,8.97-4.67,13.66l-0.47-0.06
		c-4.14,6.99-9.83,13.51-17.69,16.29c-5.61,2.41-11.78,1.53-17.7,1.75c8.63-13.87,10.08-30.81,10.01-46.7599
		c-0.64-29.61-8.64-58.73-20.75-85.63c-8.18-17.82-18.3-34.89-31.3-49.64c-11.52-12.96-25.61-25.33-43.16-28.61
		c0.34-0.08,1.02-0.23,1.36-0.31c4.15-6.52,9.89-12.42,17.4-14.86c6.3-2.35,13.12-1.6,19.57-0.37c0.15,0.02,0.44,0.07,0.59,0.09
		c7.88,3,15.41,6.98,21.99,12.26c14.17,11.26,25.38,25.78,34.82,41.12C152.89,433.97,163.33,461.67,168.51,490.32z"/>
	<path d="M137.38,534.96c0.07,15.95-1.38,32.89-10.01,46.7599c-4.84,9.39-14.78,16.03-25.41,16.38c-10.02,0.23-19.58-3.88-27.81-9.3
		c-12.04-8.02-22.01-18.78-30.63-30.31c-12.65-17.11-22.41-36.24-29.79-56.16C6.2,482.03,1.44,460.69,0,439.08v-13.75
		c0.47-8.28,1.49-16.58,3.82-24.56c2.77-9.33,7.42-18.62,15.39-24.54c6.5-4.88,15.01-6.55,22.96-5.15
		c17.55,3.28,31.64,15.65,43.16,28.61c13,14.75,23.12,31.82,31.3,49.64C128.74,476.23,136.74,505.35,137.38,534.96z M90.17,514.98
		c3.59-8.42,3.03-17.96,1.55-26.8c-2.9-15.08-9.23-29.83-19.61-41.29c-5.25-5.64-12.59-11.44-20.82-9.42
		c-4.33,1.23-7.12,5.26-8.56,9.31c-2.71,7.75-2.37,16.2-1.05,24.2c2.62,14.83,8.72,29.26,18.45,40.84
		c4.67,5.34,10.58,10.54,17.91,11.33C83.46,523.75,88.23,519.79,90.17,514.98z"/>
	<path fill="#7F7F7F" d="M91.72,488.18c1.48,8.84,2.04,18.38-1.55,26.8c-1.94,4.81-6.71,8.77-12.13,8.17
		c-7.33-0.79-13.24-5.9901-17.91-11.33c-9.73-11.58-15.83-26.01-18.45-40.84c-1.32-8-1.66-16.45,1.05-24.2
		c1.44-4.05,4.23-8.08,8.56-9.31c8.23-2.02,15.57,3.78,20.82,9.42C82.49,458.35,88.82,473.1,91.72,488.18z M80.38,491.94
		c0.03-10.89-4.1-21.84-11.34-29.97c-2.94-3.08-7.31-6.44-11.77-4.7c-3.67,1.62-4.83,6.02-5.05,9.68
		c-0.59,11.2,3.68,22.47,10.89,30.96c2.92,3.21,7.23,6.57,11.84,5.24C79.28,501.39,80.23,496.08,80.38,491.94z"/>
	<path d="M69.04,461.97c7.24,8.13,11.37,19.08,11.34,29.97c-0.15,4.14-1.1,9.45-5.43,11.21c-4.61,1.33-8.92-2.03-11.84-5.24
		c-7.21-8.49-11.48-19.76-10.89-30.96c0.22-3.66,1.38-8.06,5.05-9.68C61.73,455.53,66.1,458.89,69.04,461.97z"/>
	<g>
		<path fill="none" stroke="#FFFF8F" stroke-width="0.3" d="M1129.29,11.86c8.76-6.95,20.13-8.82,30.59-11.86h8.46"/>
		<path fill="none" stroke="#844f2c" stroke-width="0.3" d="M769.13,281.98c2.13-14.56,5.29-28.94,8.38-43.33
			c4.47-21.1,11.25-41.8,21.2-60.97c14.13-27.33,35.12-51.25,61.17-67.76c32.13-20.85,70.28-30.52,108.13-33.55
			c13.01-0.4,26.03-0.2,39.05-0.23c10.01,0.07,20.08-0.21,30.0099,1.26c29.7001,1.66,57.4301,14.27,86.9501,17.1
			c7.65,0.37,15.34,0.48,22.99-0.03c9.59-1.16,19.21-5.46,25.24-13.22c4.77-6.13,8-13.51,9.12-21.21
			c1.21-9.03-3.24-18.69-11.37-23.04c-9.77-5.66-21.63-3.78-32.1899-1.88c4.7899,0.8,9.86,1.36,14.08,3.96
			c2.85,2.01,2.91,6.11,0.98,8.77c-5.89,8.4-16.74,13.17-26.9,11.62c-5.5499-1.03-9.76-5.49-11.75-10.59
			c-3.8199-7.39-3.73-16.78,0.92-23.78c3.38-5.67,8.79-9.6,14.15-13.24c5.35-1.86,10.23-4.84,15.6799-6.43
			c7.5601-2.72,15.55-3.74,23.37-5.43h11.3"/>
		<path fill="none" stroke="#844f2c" stroke-width="0.3" d="M778.41,390.24c0.22-1.73,0.52-3.53-0.54-5.02
			c-3.93-6.59-6.74-13.78-8.78-21.16"/>
		<path fill="none" stroke="#844f2c" stroke-width="0.3" d="M1198.48,6.28c7.6901,4.74,15.0801,10.26,20.59,17.51
			c9.62,11.72,13.9301,27.2,13.28,42.23c-0.9199,19.66-8.14,38.48-17.8099,55.43c-13.2201,22.53-30.6901,42.89-52.27,57.77
			c-10.88,7.71-23.9501,11.63-37.12,12.9"/>
		<path fill="none" stroke="#FFFF8C" stroke-width="0.3" d="M1179.64,0h7.66c3.85,1.85,8.01,3.29,11.1799,6.28
			C1192.41,3.57,1186.21,1.11,1179.64,0z"/>
		<path fill="none" stroke="#ffd9b5" stroke-width="0.3" d="M851.51,547.02c-1.05-3.29-0.59-7.57-3.5-9.94
			c-27.52-21.03-55.13-41.95-82.61-63.02c4.25-27.68,8.6-55.35,12.92-83.02c0.01-0.13,0.01-0.26,0.04-0.39
			c0-0.13,0.02-0.25,0.05-0.38c-0.0099-0.01-0.0099-0.02,0-0.03c0.4901-2.93,2.92-4.95,4.72-7.17
			c12.52-16.11,19.85-35.58,24.62-55.25c5.26-22.43,7.62-45.4,11.95-68c2.38-13.79,6.58-27.16,11.24-40.32
			c5.46-11.61,11.67-23.2,20.88-32.3c6.37-5.17,12.48-11.01,20.22-14.1"/>
		<path fill="none" stroke="#ffd9b5" stroke-width="0.3" d="M872.04,173.1c15.54-7.3,32.91-10.1,50-9.6
			c11.71-0.29,23.37,0.92,34.96,2.5c31.12,4.42,61.56,12.43,92.35,18.62c24.89,5.18,50.29,9.48,75.8,7.5
			c0.21,6.68,0.74,13.35,1.1899,20.02c1.87,25.21,3.3301,50.44,5.23,75.65c20.9601-6.09,41.8601-12.4,62.8401-18.4
			c-3.9701,30.76-7.98,61.51-12.02,92.27c-15.0601,2.07-30.1901,3.51-45.25,5.51c0.7,17.97,2.39,35.87,3.42,53.82
			c2.08,28.38,3.83,56.78,5.83,85.18c-32.04,8.01-64.08,16.07-96.13,24.04c-0.98,4.06-1.6901,8.19-2.37,12.31"/>
		<path fill="none" stroke="#000000" stroke-width="0.3" d="M472.04,205.98c3.79-7.17,9.62-13.6,17.32-16.57
			c8.42-3.38,18-2.15,26.2,1.29c12.15,5.08,22.37,13.84,31.24,23.41c12.02,13.19,21.72,28.34,29.7,44.26
			c10.54,21.28,18.18,44.06,22.07,67.51c2.77,17.51,3.6,35.62-0.02,53.06c-2.62,11.91-7.77,24.36-18.32,31.32
			c-8.52,5.68-19.64,5.7-29.01,2.22"/>
		<path fill="none" stroke="#333333" stroke-width="0.3" d="M431.52,220.76c4.19-7.37,10.81-13.76,19.17-15.99
			c7.03-2.05,14.48-0.93,21.35,1.21c-4.11,7.79-6.25,16.45-7.48,25.13c-2.83,22.29,0.28,44.93,5.91,66.55
			c8.36,30.59,22.03,60.08,42.15,84.75c10.58,12.48,23.01,24.27,38.6,30.07c-4.0099,7.28-9.93,13.98-17.9399,16.85
			c-8,3.07-16.94,1.94-24.77-1.09"/>
		<path fill="none" stroke="#000000" stroke-width="0.3" d="M336.3,354.21c17.59-6.62,35.14-13.37,52.7-20.07
			c-7.33-25.51-11.47-52.69-6.52-79.04c2.55-12.48,7.77-25.65,18.92-32.82c8.94-5.82,20.5-5.29,30.12-1.52
			c-3.85,6.91-6.22,14.55-7.59,22.31c-4,23.61-0.71,47.84,5.23,70.83c8.04,29.49,21.05,57.91,39.97,82.03
			c10.67,13.29,23.38,25.75,39.38,32.31c-3.39,5.56-7.79,10.72-13.65,13.75c-7.99,4.33-17.73,4.13-26.14,1.17
			c-12.14-4.22-22.42-12.46-31.34-21.52c-14.15-14.58-25.12-31.95-34.01-50.14c-8.02,3.08-16.05,6.1-24.05,9.2"/>
		<path fill="none" stroke="#8d664b" stroke-width="0.3" d="M974.56,300.52c-2.43-13.13-1.61-27.67,5.77-39.18
			c7.8-12.65,22.44-19.34,36.72-21.41c7.6201-0.85,15.33-1.88,22.98-0.73c11.99,0.74,23.85,3.36,35.0399,7.73
			c4.4501,1.86,9.0601,3.56,12.9701,6.48c-15.79,7.18-33.3201,8.3-50.14,11.54"/>
		<path fill="none" stroke="#8d664b" stroke-width="0.3" d="M865.98,271.4c-12.82-2.34-26.09-3.89-37.92-9.72
			c7.04-4.46,14.99-7.23,22.94-9.61c14.6-4.26,29.98-5.61,45.12-4.17c7.28,0.93,14.5,2.84,21.18,5.94
			c7.8,3.58,14.37,9.58,19.12,16.7c6.52,11.36,7.56,25.23,5.27,37.91c-1.2,0.01-2.38,0.02-3.55,0.05"/>
		<path fill="none" stroke="#ebd2c1" stroke-width="0.3" d="M1025.84,268.03c3.9501-1.24,7.9701-2.32,12.0601-3.08
			c-0.55,0.53-1.0801,1.06-1.6,1.59c7.7799,2.17,15.2899,5.58,21.61,10.68c3.11,2.53,7.3199,3.7,9.6899,7.11
			c5.8,7.77,6.41,18.12,5.04,27.41c-1.5701,8.86-4.89,17.9-11.6,24.18c-5.3201,4.77-13.13,7.31-20.1001,5.08
			c-6.62-2.09-12.8199-5.29-19.3599-7.61c-14.37-4.81-28.71-9.7-43.29-13.83c-2.59-0.89-5.59-1.28-7.62-3.22
			c-1.48-4.32,0.2-8.94,1.71-13.02c0.59-0.96,0.74-2.79,2.18-2.8c1.84-0.35,3.69-0.58,5.55-0.85"/>
		<path fill="none" stroke="#f3cca6" stroke-width="0.3" d="M978.73,311.48c-0.54-4,0.26-7.99,1.38-11.81
			c3.5-3.71,7.87-6.44,11.52-10.01c5.38-4.56,10.08-9.95,15.95-13.92c5.67-3.43,11.94-5.76,18.2599-7.71
			c11.52-0.17,22.7101,4.38,31.53,11.65"/>
		<path fill="none" stroke="#ffd9b5" stroke-width="0.3" d="M765.28,319.52c-0.04,14.92-0.17,30.02,3.81,44.54l0.34,1.54
			c-10.68-1.42-21.4-2.46-32.08-3.9c-4.1-30.77-8.08-61.55-12.02-92.34c14.31,4,28.46,8.6,42.83,12.39"/>
		<path fill="none" stroke="#ebd2c1" stroke-width="0.3" d="M929.05,302.06c2.9,2.31,5.99,4.38,9.09,6.44
			c1.05,3.77,1.26,7.74,1.01,11.64c-1.06,1.22-2.98,0.99-4.42,1.44c-18.28,2.69-35.74,9.14-52.56,16.58
			c-7.45,2.95-14.97,7.53-23.31,6.19c-6.85-0.69-12.44-5.4-16.36-10.76c-6.97-10.88-9.7-24.77-6-37.27
			c1.74-4.7,4.31-9.46,8.71-12.15c4.2-2.77,7.9-6.3,12.47-8.49c2.8-1.35,5.56-2.79,8.3-4.28c3.04,0.28,6.08,0.68,9.07,1.34"/>
		<path fill="none" stroke="#f3cca6" stroke-width="0.3" d="M849.82,283.66c7.42-5.32,15.61-11.5,25.23-10.92
			c11.8,2.59,23.92,5.39,34.23,11.95c7.03,5.27,12.96,11.82,19.77,17.37c2.05,4.13,2.72,8.78,1.85,13.32"/>
		<path fill="none" stroke="#FFFFFE" stroke-width="0.3" d="M1031.23,286.61c8.6-2.68,17.04-6.27,26.14-6.93
			c2.26,0.86,4.5601,1.93,6.01,3.98c6.03,7.59,6.1899,18.21,3.9399,27.24c-2.22,8.28-7.11,16.75-15.3999,20.09
			c-5.4601,2.3-11.63,1.25-16.8501-1.16c-4.8899-2.09-9.7899-4.2-14.7399-6.19c-10.88-4.39-21.96-8.26-33.53-10.38
			c-2.72-0.48-5.5-0.74-8.07-1.78c10.89-5.2,21.54-10.91,32.61-15.72"/>
		<path fill="none" stroke="#e7b484" stroke-width="0.3" d="M768.16,281.75l0.97,0.23c-1.59,6.53-1.74,13.28-2.77,19.9
			c-0.9,5.84-0.79,11.75-1.08,17.64c-0.39,3.29-0.76,6.59-0.9301,9.9c-0.12-2.9-0.25-5.8-0.4-8.69c-5.54,2.12-10.2,5.93-15.64,8.27
			c-1.12-11.62-2.14-23.25-3.19-34.88c6.91,0.34,13.72,1.76,20.64,1.85C766.62,291.24,767.13,286.45,768.16,281.75"/>
		<path fill="none" stroke="#FFFFFF" stroke-width="0.3" d="M882.71,327.67c1.05,0.17,2.12,0.34,3.2,0.51
			c-4.89,2.18-9.78,4.37-14.77,6.28c-5.99,2.24-13.11,1.59-18.25-2.34c-8.12-6.02-11.78-16.38-12.4-26.15
			c-0.41-8.22,1.91-17.69,9.33-22.31c9-0.75,17.5,2.97,25.79,5.94c5.13,2.33,11.06-1.65,16,1.53"/>
		<path fill="none" stroke="#6fa70e" stroke-width="0.3" d="M1011.34,295.76c4.23-6.62,12.09-10.26,19.89-9.15
			c4.8301,1.62,9.65,4.23,12.3101,8.77c3.96,6.17,3.7799,14.7-0.4701,20.68c-4.0699,6.01-11.8999,9.36-19.0399,7.77
			c-1.16-0.22-2.28-0.55-3.3701-0.99c-5.56-2.23-9.98-7.2-11.31-13.08C1008.08,305.04,1009.19,300.04,1011.34,295.76"/>
		<path fill="none" stroke="#6fa70e" stroke-width="0.3" d="M896.59,324.22c-4.1801,2.57-8.96,4.08-13.88,3.45
			c-0.26-0.03-0.52-0.07-0.78-0.12c-8.81-1.24-15.9-9.67-15.62-18.56c-0.15-6.6,3.69-12.97,9.38-16.24"/>
		<path fill="none" stroke="#6fa70e" stroke-width="0.3" d="M875.69,292.75c4.65-3.08,10.71-3.21,15.92-1.62
			c5.04,2.4,9.42,6.38,11.27,11.76"/>
		<path fill="none" stroke="#e7b484" stroke-width="0.3" d="M1140.08,297.28c11.5801-0.54,23.0701-2.29,34.62-3.22
			c-1.1799,11.55-2.12,23.14-3.2799,34.7c-8.4401-3.12-15.3-9.72-23.88-12.52c-0.39,2.96-0.6801,5.94-0.92,8.92
			c4.38,1.89,8.9301,3.34,13.3199,5.23c-0.6899,2.14-1.61,4.19-2.7899,6.1c-6.09-2.06-12.01-4.57-17.98-6.94
			c0.37-8.26,2.46-16.32,3.1499-24.55c8.13,3.59,15.3301,8.94,23.3401,12.79c0.25-5.33,1.02-10.61,1.36-15.92
			c-9.37,0.28-18.62,2.49-28.03,2.05C1139.04,301.67,1139.34,299.42,1140.08,297.28z"/>
		<path fill="none" stroke="#FEFFFD" stroke-width="0.3" d="M1028.75,300.2c-0.13-2.22,0.42-5.28,3.28-5.11
			c3.9099-0.94,5.9299,4.07,3.72,6.89"/>
		<path fill="none" stroke="#000001" stroke-width="0.3" d="M1035.75,301.98c2.64,6.18-3.3,13.53-9.89,11.92
			c-6.55-0.9-9-10.06-4.51-14.51c1.54-1.86,3.98-2.36,6.1801-3.06c0.35,1.29,0.6,2.64,1.22,3.87
			C1029.59,303.33,1033.4,303.45,1035.75,301.98z"/>
		<path fill="none" stroke="#FCFEFF" stroke-width="0.3" d="M886.46,300.17c1.6-1.58,4.29-2.45,6.16-0.74
			c1.98,1.29,0.97,3.99,1.06,5.95l-0.27,0.11"/>
		<path fill="none" stroke="#000102" stroke-width="0.3" d="M893.41,305.49c0.61,3.64,0.45,7.85-2.81,10.25
			c-4.91,4.57-13.78,0.86-14.2-5.79c-0.78-5.66,4.65-10.21,10.06-9.78c-0.28,1.81-0.83,4.17,0.89,5.46
			C889.04,307.4,891.55,306.41,893.41,305.49z"/>
		<path fill="none" stroke="#CD8B55" stroke-width="0.3" d="M752.48,302.06c4.15-0.39,8.26,0.43,12.33,1.13
			c0.17,2.84,0.17,5.69,0.01,8.53c-3.45,2.18-6.92,4.34-10.61,6.08C753.42,312.58,753.03,307.31,752.48,302.06z"/>
		<path fill="none" stroke="#FEFEFD" stroke-width="0.3" d="M902.88,302.89l-0.41-1.63c9.47,4.71,19.05,9.22,28.4301,14.12
			c-11.72,1.62-23.3,4.48-34.31,8.84C902.61,319.05,905.5,310.54,902.88,302.89z"/>
		<path fill="none" stroke="#ffd9b5" stroke-width="0.3" d="M207.77,403.23c-5.6-8.66-11.32-17.24-16.67-26.05"/>
		<path fill="none" stroke="#ffd9b5" stroke-width="0.3" d="M234.46,444.77c-1.55-2.34-3.05-4.71-4.51-7.1"/>
		<path fill="none" stroke="#ffd9b5" stroke-width="0.3" d="M691.59,795.11c-114.57,25.97-229.2,51.69-343.8,77.54
			c-20.37-19.44-40.83-38.81-61.24-58.21c-0.97-0.89-1.59-2.07-1.64-3.38c-10.09-109.67-20.29-219.34-30.42-329.01
			c-0.32-3.19-0.03-6.71-1.93-9.48c-5-7.63-9.86-15.34-14.87-22.97"/>
		<path fill="none" stroke="#ffd9b5" stroke-width="0.3" d="M927.18,1149.11c-6.18-19.48-11.52-39.23-17.36-58.8199
			c-7.8-26.5701-15.44-53.1801-23.29-79.73c-40.52-15.84-81.05-31.69-121.59-47.47c-2.54-1.3-6.35-1.45-7.48-4.47
			c-17.19-45.33-34.05-90.79-51.43-136.04"/>
		<path fill="none" stroke="#ffd9b5" stroke-width="0.3" d="M1100.1,1113.33c-1.37,0.3201-2.74,0.62-4.09,0.91"/>
		<path fill="none" stroke="#ffd9b5" stroke-width="0.3" d="M1218.1899,756.3c0.3201,10.23-0.5199,20.46-0.48,30.69
			c-0.59,40.08-1.38,80.14-2.1499,120.21c-24.02,8.3-48.05,16.58-71.9901,25.11c-10.71,59.63-21.2799,119.28-32.0699,178.89"/>
		<path fill="none" stroke="#ffd9b5" stroke-width="0.3" d="M1218.5,739.95c0.22,3.25-0.12,6.5-0.29,9.74"/>
		<path fill="none" stroke="#ffd9b5" stroke-width="0.3" d="M1230.66,743.77c-2.75-3.64-5.7201-7.1-8.4401-10.76"/>
		<path fill="none" stroke="#ffd9b5" stroke-width="0.3" d="M1512.9,1116.95c-6.49-7.87-14.42-14.3899-21.1901-22.01
			c20.9701-10.5399,42.1801-20.59,63.1901-31.0399c-27.3101-70.03-55.14-139.8701-82.36-209.9301
			c1.8999-6.85,5.0299-13.3199,7.3999-20.03c7.7201-20.29,15.8201-40.44,23.17-60.86c-23.33,22.53-50.1,42.57-81.12,53.02
			c-22.74,7.76-47.6,9.32-71.02,3.79c-30.3099-6.97-57.23-24.17-80.35-44.49c-8.46-7.56-16.71-15.38-24.2-23.91"/>
		<path fill="none" stroke="#ffd9b5" stroke-width="0.3" d="M1558.37,1099.55c-0.11-0.3501-0.3199-1.0601-0.4301-1.42
			c-6.99,3.13-14.2699,5.67-20.9299,9.46"/>
		<path fill="none" stroke="#ffd9b5" stroke-width="0.3" d="M1687.3101,1093.98c4.5599,6.6901,9.4399,13.16,13.7799,20.01
			c-36.9399,7.11-73.9099,14.0701-110.85,21.16c-7.72,1.3099-15.3199,3.34-23.15,3.84"/>
		<path fill="none" stroke="#ffd9b5" stroke-width="0.3" d="M1111.79,571.63c6.96,4.06,15.2799,4.15,23.12,4.1
			c3.49-2.01,6.39-4.91,9.9199-6.89c25.26-15.44,56.78-18.32,85.28-11.71c20.0601,4.65,39.3101,14.15,53.97,28.79
			c3.28,3.1,5.37,7.29,8.87,10.18c6.8301,2.54,13.99,4.15,20.9401,6.39c87.7999,26.14,175.64,52.17,263.4399,78.33
			c1.63,0.21,2.1001,1.87,2.55,3.22c5.12,17.14,10.36,34.24,15.59,51.35c1.76,6.56,4.3201,12.92,5.64,19.59
			c9.3201,84.68,18.54,169.38,27.88,254.05c0.48,2.46,2.25,4.38,3.6,6.4301c10.4,14.85,20.74,29.7299,31.11,44.6099"/>
		<path fill="none" stroke="#ffd9b5" stroke-width="0.3" d="M359.55,388.16c6.5-2.72,13.2-4.9,19.77-7.46
			c4.32,8.15,8.22,16.52,12.48,24.72c-18.04,14.35-36.39,28.31-54.56,42.51c21.32,65.59,42.89,131.09,64.26,196.66
			c1.02,3.4,2.72,6.71,2.74,10.33c-1.62,25.7-3.03,51.41-4.59,77.11c-0.13,7.2-1.18,14.3701-0.98,21.58
			c1.1-2.94,1.93-5.95,2.61-8.99c7.29-29.19,17.55-58.76,37.47-81.89c11.74-13.53,27.73-23.59,45.38-27.17
			c19.72-4.09,40.18-1.34,59.37,4.1c22.63,6.32,44.04,16.29,64.85,27.07c5.45,2.72,10.57,6.08,16.22,8.39
			c3.94-13.19,10.89-25.34,19.56-35.97c20.71-24.9901,51.33-42.26,83.92-44.59c15.86-0.79,32.88,1.44,46.03,11.02
			c3.33-2.47,6.64-4.98,9.93-7.51"/>
		<path fill="none" stroke="#ffd9b5" stroke-width="0.3" d="M191.1,377.18c48.06-13.7,96.16-27.26,144.26-40.83
			c0.23,5.96,0.84,11.9,0.94,17.86c-0.38,0.2-1.14,0.6-1.52,0.8c-0.73,13.75-1.21,27.54-1.64,41.32c-0.02,0.66-0.04,1.31-0.06,1.97
			c1.62-0.62,3.25-1.22,4.9-1.79"/>
		<path fill="none" stroke="#000000" stroke-width="0.3" d="M81.09,355.63c4-7.24,10.03-13.74,18.02-16.46
			c10.23-3.62,21.5-0.8,30.75,4.2c11.29,6.09,20.8,14.98,29.12,24.64c11.21,13.06,20.23,27.86,27.76,43.31
			c6.99-2.75,14.04-5.33,21.03-8.09c7.48,11.42,14.89,22.89,22.18,34.44c-9.62,3.61-19.21,7.32-28.82,10.95
			c7,24.31,11,50.06,7.23,75.28c-2.21,13.4-7.04,27.75-18.55,35.97c-7.62,5.59-17.67,5.92-26.58,3.87"/>
		<path fill="none" stroke="#333333" stroke-width="0.3" d="M42.17,371.08c0.34-0.08,1.02-0.23,1.36-0.31
			c4.15-6.52,9.89-12.42,17.4-14.86c6.3-2.35,13.12-1.6,19.57-0.37c0.15,0.02,0.44,0.07,0.59,0.09c7.88,3,15.41,6.98,21.99,12.26
			c14.17,11.26,25.38,25.78,34.82,41.12c14.99,24.96,25.43,52.66,30.61,81.31c3.33,19.7,4.44,40.25-0.61,59.76
			c-1.1,4.7-3.49,8.97-4.67,13.66l-0.47-0.06c-4.14,6.99-9.83,13.51-17.69,16.29c-5.61,2.41-11.78,1.53-17.7,1.75"/>
		<path fill="none" stroke="#060000" stroke-width="0.3" d="M306.43,408.48c-3.8-13.06-8.57-25.84-12.1-38.97
			c6.14,12.15,10.94,24.94,16.71,37.27"/>
		<path fill="none" stroke="#000000" stroke-width="0.3" d="M19.21,376.23c6.5-4.88,15.01-6.55,22.96-5.15
			c17.55,3.28,31.64,15.65,43.16,28.61c13,14.75,23.12,31.82,31.3,49.64c12.11,26.9,20.11,56.02,20.75,85.63
			c0.07,15.95-1.38,32.89-10.01,46.7599c-4.84,9.39-14.78,16.03-25.41,16.38c-10.02,0.23-19.58-3.88-27.81-9.3
			c-12.04-8.02-22.01-18.78-30.63-30.31c-12.65-17.11-22.41-36.24-29.79-56.16C6.2,482.03,1.44,460.69,0,439.08v-13.75
			c0.47-8.28,1.49-16.58,3.82-24.56C6.59,391.44,11.24,382.15,19.21,376.23"/>
		<path fill="none" stroke="#914F12" stroke-width="0.3" d="M934.39,381.37c3.02-4.47,10.31-4.67,13.61-0.41
			c2.41,2.27,1.87,5.77,1.74,8.74c-5.54,0.12-11.08,0.08-16.62,0.06C932.5,386.92,932.43,383.73,934.39,381.37z"/>
		<path fill="none" stroke="#914F12" stroke-width="0.3" d="M965.63,379.64c4.15-3.4,11.29-1.65,13.27,3.38
			c1.06,2.14,0.58,4.54,0.18,6.78c-5.46-0.32-11.11,0.61-16.46-0.45C961.51,385.89,962.63,381.78,965.63,379.64z"/>
		<path fill="none" stroke="#f7a581" stroke-width="0.3" d="M1045.4301,381.69c8.5299-1.11,17.5399-0.47,25.2,3.75
			c7.24,3.63,13.09,9.62,17.28,16.48c4.09,8.93,7.27,19.09,4.87,28.93c-1.41,5.72-3.37,11.39-6.63,16.34
			c-5.91,8.57-14.92,15.1-25.1801,17.27c-11.03,2.59-23.1-0.19-32.0699-7.08c-8.58-6.22-14.29-15.98-16.36-26.3
			c-0.48-5.32-0.54-10.73,0.09-16.04c2.32-10.37,7.8-20.52,16.86-26.47C1034.12,384.96,1039.74,382.92,1045.4301,381.69z"/>
		<path fill="none" stroke="#030000" stroke-width="0.3" d="M280.52,418.29c-2.53-11.51-5.76-22.86-8.14-34.41
			c4.59,10.56,8.94,21.23,13.83,31.66"/>
		<path fill="none" stroke="#FFFEF4" stroke-width="0.3" d="M337.98,396.51c7.16-2.87,14.41-5.49,21.57-8.35
			c-3.51,2.05-7.24,3.65-10.98,5.22C345.15,394.76,341.83,396.94,337.98,396.51z"/>
		<path fill="none" stroke="#FFFEFD" stroke-width="0.3" d="M317.13,390.25c4.37-2.75,10.47,0.94,10.47,5.91
			c0,0.27-0.01,0.54-0.05,0.81c-0.14,3.24-2.87,5.71-5.87,6.28c-1.87,0.35-3.85-0.04-5.37-1.43
			C312.34,399.08,312.88,392.41,317.13,390.25z"/>
		<path fill="none" stroke="#FEFEFD" stroke-width="0.3" d="M290.37,398.54c4.05-2.89,10.69,0.37,10.48,5.45
			c0.94,5.39-5.92,9.61-10.36,6.52C286.07,408.15,286.05,401.01,290.37,398.54z"/>
		<path fill="none" stroke="#030000" stroke-width="0.3" d="M251.48,429.44c-2.65-9.54-5.48-19.03-8.07-28.59
			c4.94,8.65,9.49,17.52,14.49,26.14"/>
		<path fill="none" stroke="#f7a581" stroke-width="0.3" d="M863.15,401.05c18.16-4,37.78,6.94,44.78,23.98
			c5.9,13.47,4.36,29.76-3.96,41.88c-5,7.84-13.17,13.18-21.86,16.12c-9.52,2.58-20.08,1.95-28.95-2.52
			c-7.72-4.17-14.5099-10.49-18.28-18.5c-6.03-11.81-6.39-26.62-0.27-38.47C839.9,412.14,850.75,403.39,863.15,401.05z"/>
		<path fill="none" stroke="#ffc894" stroke-width="0.3" d="M311.04,406.78c0.29,0.56,0.88,1.69,1.17,2.25
			c3.52-0.54,6.94-1.47,10.38-2.39c3.53-0.94,7.06-1.87,10.7-2.35c-2.57,3.25-6.48,4.85-9.9,6.99
			c-9.63,5.78-19.82,10.68-29.09,17.03c0.38,7.28,2.83,14.33,3.64,21.59c-7.16-4.38-13.9-9.46-21.12-13.73
			c-3.18-0.16-6.1,1.5-9.03,2.51c-9.99,3.76-19.92,7.7-30.1,10.92c-1.07-1.61-2.16-3.22-3.23-4.83c5.11-4.76,11.73-7.28,17.53-11.02
			c-0.16-1.45-0.29-2.89-0.51-4.31c2.14-0.81,4.28-1.63,6.42-2.45c0.62,0.75,1.26,1.5,1.91,2.25c7.11-2.31,14.17-4.78,21.19-7.38
			c-0.16-1.2-0.29-2.38-0.48-3.57c1.98-0.69,4.13-1.24,5.69-2.75c0.39,0.76,0.79,1.52,1.2,2.28c6.68-1.87,13.27-4.13,19.66-6.83
			c-0.21-0.84-0.42-1.68-0.64-2.51C307.97,407.91,309.5,407.34,311.04,406.78z"/>
		<path fill="none" stroke="#FFFEFD" stroke-width="0.3" d="M262.27,409.35c5.19-2.91,11.92,3.12,9.65,8.6
			c-1.38,4.73-8.28,6.32-11.56,2.65C256.94,417.46,257.96,411.15,262.27,409.35z"/>
		<path fill="none" stroke="#f3cca6" stroke-width="0.3" d="M959.32,415.4c10.33-1.86,21.65-0.34,30.25,5.99
			c7.61,4.81,13.09,13.45,12.8,22.63c0.25,7.01-2.94,13.69-7.64,18.75c-14.06,14.26-39.63,14.41-53.97,0.49
			c-6.73-6.28-10.19-16.21-7.69-25.21C936.12,425.98,947.45,417.59,959.32,415.4z"/>
		<path fill="none" stroke="#FFFEFD" stroke-width="0.3" d="M234.44,422.58c4.46-2.87,11.1,1.15,10.33,6.48
			c0.17,5.09-6.26,8.39-10.4,5.59C229.74,432.29,229.85,424.92,234.44,422.58z"/>
		<path fill="none" stroke="#a13939" stroke-width="0.3" d="M963.34,425.4c7.78-1.96,16.77-0.07,22.45,5.8
			c3.53,3.55,5.45,8.78,4.4901,13.77c-1.09,6.8-6.89,12.05-13.28,14c-10.85,3.81-25.64-1.4-28.37-13.41
			C946.45,436.06,954.43,427.31,963.34,425.4z"/>
		<path fill="none" stroke="#7F7F7F" stroke-width="0.3" d="M51.29,437.47c8.23-2.02,15.57,3.78,20.82,9.42
			c10.38,11.46,16.71,26.21,19.61,41.29c1.48,8.84,2.04,18.38-1.55,26.8c-1.94,4.81-6.71,8.77-12.13,8.17
			c-7.33-0.79-13.24-5.9901-17.91-11.33c-9.73-11.58-15.83-26.01-18.45-40.84c-1.32-8-1.66-16.45,1.05-24.2
			C44.17,442.73,46.96,438.7,51.29,437.47z"/>
		<path fill="none" stroke="#000000" stroke-width="0.3" d="M57.27,457.27c4.46-1.74,8.83,1.62,11.77,4.7
			c7.24,8.13,11.37,19.08,11.34,29.97c-0.15,4.14-1.1,9.45-5.43,11.21c-4.61,1.33-8.92-2.03-11.84-5.24
			c-7.21-8.49-11.48-19.76-10.89-30.96C52.44,463.29,53.6,458.89,57.27,457.27z"/>
		<path fill="none" stroke="#ffc894" stroke-width="0.3" d="M981,513c7.13-3.33,13.81-7.5,20.92-10.84
			c2.92,11.89,5.67,23.84,8.11,35.84c-7.3701,0.46-14.69-0.83-22.04-0.95c-13.34-0.73-26.67-1.7-40.03-2.26
			c-1.71-0.13-3.36-0.59-5-1C955.38,526.38,968.39,520.04,981,513z"/>
		<path fill="none" stroke="#ffc894" stroke-width="0.3" d="M1047.89,542.52c21.2999,9.7,42.63,19.33,63.9,29.11
			c-16.3,26.33-33.0601,52.39-49.7101,78.5c-61.71-2.94-123.42-5.95-185.1199-8.97c-3.6-0.11-7.35,0.09-10.71-1.41
			c-6.43-2.77-12.62-6.08-18.92-9.12c-13.83-7.33-28.03-13.94-41.96-21.06c-7.18-3.72-14.74-6.81-21.36-11.5
			c22.48-17.03,44.95-34.09,67.5-51.05c3.12,13.0099,6.24,26.02,9.14,39.08c0.58,1.69,0.78,4.59,3.3,4.07
			c46.33,0.06,92.67,0.05,139.01,0.04c11.64-0.17,23.28,0.35,34.91-0.2401C1041.91,574.31,1044.03,558.23,1047.89,542.52z"/>
		<path fill="none" stroke="#f3cca6" stroke-width="0.3" d="M1212.33,569.52c10.3201-2.02,21.51-0.9901,30.65,4.5099
			c6.11,3.1801,10.71,9.9301,9.9,16.9901c-0.39,4.5099-3.2,8.42-6.59,11.25c-5.9601,4.88-13.6901,7.02-21.24,7.65
			c-10.4301,0.47-21.7301-2.03-29.3-9.65c-4.6801-4.65-6.16-12.41-2.76-18.21C1197.23,575.27,1204.6899,571.25,1212.33,569.52z"/>
		<path fill="none" stroke="#f3cca6" stroke-width="0.3" d="M720.38,608.5c9.4-1.65,20.51-1.81,27.92,5.18
			c5.08,4.02,6.54,11.25,4.78,17.29c-1.68,7.54-7.14,13.46-12.88,18.29c-10.52,8.35-24.59,12.64-37.92,10.3
			c-5.91-0.89-11.11-4.57-14.3101-9.55c-3.71-6.59-2.05-14.96,1.96-21.02C696.69,618.28,708.34,611.6,720.38,608.5z"/>
		<path fill="none" stroke="#f3cca6" stroke-width="0.3" d="M1262.78,667.88c1.2-1.76,3.5-0.56,5.24-0.57
			c20.5499,3.48,40.66,9.05,60.96,13.68c42.4,10.54,84.71,21.47,126.75,33.37c6.6801,1.9,13.3301,3.9,19.97,5.98
			c3.7201,1.22,8.01,1.67,10.8401,4.7c-3.7001,2.44-8.3301,1.8-12.52,2.17c-22.04,0.36-44.01-1.77-65.96-3.37
			c-41.1001-3.3-82.1001-7.6201-123.1001-11.88c-5.88-0.78-11.83-0.9901-17.6599-2.09C1265.76,695.88,1263.87,681.91,1262.78,667.88
			z"/>
		<path fill="none" stroke="#ffc894" stroke-width="0.3" d="M1065.63,704.7c16.49-9.8,32.87-19.81,49.4-29.53
			c9.1599,6.94,16.8099,15.81,25.71,23.14c3.79,3.51,7.25,7.38,11.33,10.6c2.5801,2.4,5.66,4.55,7.3301,7.75
			c4.1699,24.41,7.62,48.96,11.88,73.36c0.02,1.54,1.0599,3.62-0.51,4.73c-2.5601,2-5.64,3.12-8.48,4.62
			c-26.24,14.13-52.62,28.02-78.9,42.09c-2.38,1.5099-5.5,2.44-6.73,5.21c-9,18.28-18.24,36.45-27.3101,54.69
			c-3.2999,6.34-5.84,13.02-8.36,19.69c-14.04,33.9-27.54,68.01-41.47,101.95c-5.56-9.59-9.79-19.9-15.12-29.61
			c-10.52-21.1-21.2-42.12-31.53-63.31c-3.12-3.9-7.7-6.3-11.59-9.33c-15.38-11.99-31.01-23.64-46.4901-35.5
			c-18.13-14.26-36.71-27.91-54.91-42.06c-3.01-2.28-6.36-4.33-8.42-7.59c-16.73-27.55-34.45-54.5-51.29-81.99
			c2.82-3.69,6.58-6.44,9.99-9.53c12.05-11.7,24.3701-23.1,36.76-34.43c12.08,1.11,24.03,3.37,36.07,4.93
			c18.55,2.64,37.09,5.28,55.65,7.85c7.78,0.95,15.55,3.24,23.44,2.18c35.64-4.02,71.32-7.8,106.98-11.64
			C1055.3199,712.07,1060.26,707.7,1065.63,704.7z"/>
		<path fill="none" stroke="#f3cca6" stroke-width="0.3" d="M611.03,699c2.8-1.21,5.64-2.37,8.65-2.98
			c2.8,13.66,5.4,27.36,8.28,41.0099c0.49,2.15,0.72,4.36,0.9,6.57c-66.63,9.84-133.19,20.25-199.79,30.26
			c-5.38,0.57-10.66,2.02-16.09,1.99c11.17-5.19,22.99-8.83,34.35-13.58C501.92,741.24,556.45,720.06,611.03,699z"/>
		<path fill="none" stroke="#844f2c" stroke-width="0.3" d="M1231.5699,744.74c-0.3899,2.24-0.85,4.48-1.3099,6.72
			c0.11-2.57,0.25-5.13,0.4-7.69c3.01-1.09,6.0399-2.53,9.35-2.2c4.11,0.45,7.98-1.2,11.98-1.82c4.08-0.19,8.72,3.98,7.1801,8.26
			c-1.76,6.14-6.74,11.38-12.75,13.48c-4,0.62-7.3201,3.6-11.4801,3.25c-6.6799,0.47-12.4299-3.8-16.75-8.44
			c-2.1499-2.5-4.1499-5.17-5.4399-8.22c-4.67-9.77-3.64-20.96-3.1899-31.44c0.72-0.17,2.1699-0.5,2.8899-0.67
			c0.1101,6.32,0.29,12.65-0.01,18.97"/>
		<path fill="none" stroke="#844f2c" stroke-width="0.3" d="M1212.4399,734.94c1.4-6.36-0.36-12.85,0.79-19.2
			c0.48,6.42-0.1699,12.85,0.29,19.27c0.38,5.18,2.2,10.15,4.6899,14.68c3.23,6.42,9.8401,10.71,16.8301,11.9
			c-9.4-3.03-14.9701-12.33-16.54-21.64c-0.92-5.51-1.37-11.19,0.01-16.66c0.92,0.11,2.76,0.33,3.6799,0.45
			c0.0601,3.08,0.0801,6.18,0.03,9.27c-0.4099,8.3,2.3401,17.58,9.49,22.47c2.88,2.09,6.4701,2.66,9.9301,3.14
			c0.24-0.29,0.72-0.86,0.97-1.15"/>
		<path fill="none" stroke="#844f2c" stroke-width="0.3" d="M1022.18,796.24c6.1301,2.98,8.79,10.46,10.2,16.77
			c0.4399,8.13,1.91,17.33-3.12,24.42c-4,6.84-11.25,10.85-18.5,13.44c-5.72,1.83-11.69,3.1-17.72,2.97
			c-10.27,0.35-20.91-0.17-30.38-4.55c-8.58-3.8-14.99-12.02-16.58-21.28c-2.04-12.21,0.85-24.57,4.83-36.09
			c6.39-17.77,15.7-34.36,26.35-49.91c2.39,1.04,4.46,2.63,6.43,4.33c-10.69,15.81-20.1,32.65-26.38,50.73
			c-1.62,4.98-3.03,10.14-3.75,15.37c-0.66,4.7-0.75,9.45,0.06,14.17c0.86,6.07,4.52,11.8,9.94,14.79
			c9.13,5.39,20.04,5.7,30.36,5.42c9.63,0.19,19.76-2.32,27.15-8.74c4.36-3.68,6.96-9.34,6.79-15.05
			c0.1901-6.78-0.11-14.05-4.05-19.85c-1.6-2.63-4.31-4.19-6.58-6.14"/>
		<path fill="none" stroke="#CB8D53" stroke-width="0.3" d="M1245.78,741.75c3.13-0.64,6.6599-0.72,9.5,0.98
			c1.46,1.33,1.4199,3.51,1.08,5.32c-1.63,4.29-5.46,7.11-9.09,9.65c0.87-2.84,1.62-5.76,1.41-8.75
			C1248.76,746.23,1246.8101,744.1,1245.78,741.75z"/>
		<path fill="none" stroke="#CB8C55" stroke-width="0.3" d="M1231.5699,744.74c4.0801-1.7,9.54-2.39,13.2101,0.56
			c3.36,3.69,0.7,9.06-2.17,12.17C1238.87,753.28,1235.1801,749.04,1231.5699,744.74z"/>
		<path fill="none" stroke="#8d664b" stroke-width="0.3" d="M984.77,813.66c0.26-1.54,0.75-3.04,1.53-4.45
			c4.59-10.16,15.73-16.7401,26.78-16.48c3.14,0.68,6.77,1.02,9.1,3.51c-2.33-0.36-4.66-0.65-6.98-0.96
			c0.5,0.44,1.52,1.32,2.03,1.76c-12.8-3.31-27.29,4.43-31.57,16.92c-0.58,2.96-0.2599,6-0.1299,9
			C984.67,819.96,984.26,816.73,984.77,813.66z"/>
		<path fill="none" stroke="#844f2c" stroke-width="0.3" d="M655.99,824.82c-1.51-5.26,0.44-11.53,5.15-14.48
			c1.92-1.35,4.15-0.1801,6.12,0.35c0.18,0.56,0.54,1.68,0.72,2.25c-1.8-0.79-3.99-2.39-5.88-1c-3.36,2.67-4.0699,7.19-3.77,11.23
			c0.73,0.89,1.46,1.8,2.19,2.72c2.58-0.24,4.75-1.66,6.83-3.09c-0.88,1.47-1.67,3.01-2.45,4.54c3.17-0.47,9.12,0.12,9.11-4.42
			c0.37,0.16,1.09,0.46,1.45,0.62c8.58-7.3,12.09-18.34,16.13-28.43"/>
		<path fill="none" stroke="#844f2c" stroke-width="0.3" d="M691.85,833.32c3.91-7.45,4.31-16.11,3.59-24.33
			c-0.63-3.36-1.33-6.72-1-10.15c-3.71,11.67-9.63,23.55-20.12,30.54c-4.11,0.96-8.33,1.25-12.52,0.89"/>
		<path fill="none" stroke="#844f2c" stroke-width="0.3" d="M663.21,838.3c2.44,2.74,5.05,5.59,8.5099,7.05
			c2.95,0.9,6.08,0.28,9.09-0.05c-0.39-0.57-1.16-1.71-1.54-2.29"/>
		<path fill="none" stroke="#844f2c" stroke-width="0.3" d="M691.59,795.11c0.92-0.24,2.7599-0.73,3.68-0.97
			c4.09,9.27,7.14,18.97,10.76,28.44c1.11,5.73,2.25,11.54,1.72,17.42c0.07,3.94-2.31,8.05-6.1,9.41c-5.72,1.4-11.3-0.99-16.61-2.8
			c-3.13,1.57-6.45,3.35-10.07,2.87c-5.42-0.57-9.75-4.31-13.14-8.3"/>
		<path fill="none" stroke="#844f2c" stroke-width="0.3" d="M699.77,819.03c-0.57,6.0601-2.07,12.17-5.22,17.44
			c-1.56,2.82-4.17,4.89-5.57,7.83c4.4,1.83,11.33,4.06,14.32-1.17c1.28-6.78,0.34-13.81-1.99-20.27
			C700.75,821.59,700.24,820.31,699.77,819.03z"/>
		<path fill="none" stroke="#DDD73E" stroke-width="0.3" d="M655.99,824.82c2,1.74,4,3.49,5.81,5.45c-0.19,2.74,0.14,5.54,1.41,8.03
			c-0.35,0.72-1.04,2.16-1.38,2.88c-3.29-3.23-2.41-8.03-2.33-12.16C658.09,827.83,656.76,826.51,655.99,824.82z"/>
		<path fill="none" stroke="#DFDB34" stroke-width="0.3" d="M682.05,842.62c-0.7,0.1-2.09,0.29-2.78,0.39
			c-4.25-5.91-0.05-13.59,5.69-16.64l-0.76,2.22"/>
		<path fill="none" stroke="#FEFFFB" stroke-width="0.3" d="M684.2,828.59c1.59-0.34,3.2-0.6,4.81-0.86
			c0.94,1.85,1.89,3.72,2.84,5.59c-2.42,3.72-4.79,8.95-9.8,9.3c-0.85-2.17-2.05-4.37-1.77-6.77
			C680.27,832.91,682.57,830.78,684.2,828.59z"/>
		<path fill="none" stroke="#EC5D5F" stroke-width="0.3" d="M1134.4399,868.78c8.79-1.0699,18.1801-0.8199,26.04,3.71
			c3.0601,2.88,7.3301,5.8,7.3301,10.48c0.7899,4.65-1.64,8.9301-4,12.73c-8.3201,8.04-20.3301,11.78-31.78,10.45
			c-7.42-0.45-14.67-3.92-18.9301-10.13c-2.66-6.01-0.8099-12.89,2.89-18.03C1120.96,873.02,1127.62,870.14,1134.4399,868.78z"/>
		<path fill="none" stroke="#FF97B0" stroke-width="0.3" d="M1134.2,882.25c4.15-2.34,9.37,2.43,7.7001,6.77
			c-0.92,4.64-8.11,5.23-10.23,1.2599C1129.6801,887.64,1131.25,883.43,1134.2,882.25z"/>
		<path fill="none" stroke="#EC5D5F" stroke-width="0.3" d="M838.39,894.51c9.78-1.23,20.15,1.14,28.15,6.98
			c3.84,3.38,7.65,8.06,7.41,13.47c0.25,5.2599-3.91,9.34-7.61,12.49c-8.4301,4.56-18.75,6.41-28.02,3.41
			c-3.93-1.2-8.1-2.23-11.28-4.97c-4.63-3.51-9.4-8.1-9.48-14.34c-0.25-7.34,6-12.99,12.55-15.06
			C832.84,895.72,835.59,895.01,838.39,894.51z"/>
		<path fill="none" stroke="#000000" stroke-width="0.3" d="M1770.05,923.95c2.95-5.4,6.88-10.41,12.1-13.78
			c6.39-4.23,14.48-5.52,21.97-4.1c9.92,1.73,18.8101,7.04,26.64,13.18c11.46,9.18,20.95,20.6,29.14,32.74
			c10.9399,16.41,19.5,34.34,25.99,52.94c6.63,19.18,11,39.22,12.11,59.5099v15.26c-0.87,12.4701-2.99,25.25-9.21,36.28
			c-3.8401,6.84-9.67,12.85-17.16,15.5701c-7.6,2.87-16.09,2.0399-23.6-0.66"/>
		<path fill="none" stroke="#FF97B0" stroke-width="0.3" d="M846.35,908.4c3.37-2.39,8.77,0.35,8.55,4.5699
			c0.33,3.6201-3.36,6.73-6.87,5.64C843.36,917.77,842.12,910.68,846.35,908.4z"/>
		<path fill="none" stroke="#333333" stroke-width="0.3" d="M1728.78,938.13l0.59,0.15c3.7-5.5,8.09-10.83,14.21-13.72
			c8.1901-4.28,17.9601-3.53,26.4701-0.61c-4.25,8.08-6.5801,17.04-7.74,26.06c-2.5901,21.04-0.0601,42.43,4.98,62.92
			c7.9299,31.09,21.37,61.1301,41.36,86.3801c10.63,13.1299,23.35,25.4299,39.38,31.58c-4.04,7.3199-10.0701,13.99-18.15,16.79
			c-8.01,2.9299-16.86,1.6799-24.67-1.2401"/>
		<path fill="none" stroke="#000000" stroke-width="0.3" d="M1663.7,1060.0699c7.54-2.85,15.13-5.58,22.63-8.5499
			c-3.9099-13.2001-6.5599-26.78-7.7699-40.48c-1.3401-16.79-0.88-34.19,5-50.15c3.5499-9.54,9.7699-18.84,19.4099-22.99
			c8.17-3.75,17.5601-2.66,25.8101,0.23c-0.5801,2.15-1.3101,4.27-2.2101,6.32c-3.2,7.05-4.74,14.72-5.7699,22.35
			c-2.4301,20.85,0.1,42,5.1399,62.28c7.6801,30.26,20.67,59.4601,39.75,84.29c10.66,13.55,23.4,26.26,39.52,33.0699
			c-4.01,6.6801-9.7899,12.64-17.2999,15.1901c-8.35,3.0699-17.67,1.64-25.6901-1.74c-12.65-5.41-23.08-14.8101-32.1699-24.9401
			c-12.04-13.72-21.7301-29.3899-29.53-45.85c-4.46,1.5-8.8201,3.24-13.21,4.88
			C1679.4399,1082.6801,1671.54,1071.39,1663.7,1060.0699z"/>
		<path fill="none" stroke="#000000" stroke-width="0.3" d="M1378.11,1071.51c3.8101-6.73,9.24-12.91,16.54-15.89
			c8.78-3.78,18.9-2.45,27.46,1.29c11.89,5.1899,21.9301,13.85,30.59,23.38c12.7201,14.01,22.7001,30.2999,30.91,47.2999
			c9.79-3.46,19.33-7.72,29.29-10.64c4.41-0.8099,8.33-3.09,12.45-4.75c3.8301-1.6699,7.8201-2.9399,11.66-4.61
			c7.0699-2.7799,14.24-5.33,21.36-8.0399c3.65,12.84,7.3101,25.6799,10.74,38.58c-0.5,0.21-1.51,0.64-2.02,0.86
			c-23.0499,8.72-46.15,17.33-69.23,25.96c3.75,14.1101,6.89,28.4601,7.8101,43.0701c1.14,15.91,0.4399,32.35-5.05,47.47
			c-3.33,9.05-8.97,17.87-17.73,22.4401c-7.27,3.8899-16.02,4.0199-23.8201,1.74"/>
		<path fill="none" stroke="#333333" stroke-width="0.3" d="M1340.4,1086.66c3.4299-5.48,7.84-10.5701,13.71-13.5
			c7.3201-3.9,16.16-3.8201,24-1.65c16.59,5.28,29.66,17.6799,40.64,30.72c21.01,25.77,34.89,56.8301,42.99,88.9301
			c5.33,22.33,7.9301,45.77,3.76,68.52c-1.17,6.95-3.9301,13.45-6.4301,19.99c-4.1599,5.8999-8.5399,12.09-15.33,15.1599
			c-6.22,3.3401-13.4,3.1001-20.21,2.63"/>
		<path fill="none" stroke="#000000" stroke-width="0.3" d="M1318.83,1089.88c6.4401-3.83,14.29-4.61,21.5701-3.22
			c17.13,3.84,30.72,16.13,42.0599,28.9099c21.79,25.63,36.1801,56.9501,44.6801,89.3301c5.2,20.91,8.03,42.72,5.39,64.21
			c-1.39,9.83-3.6801,19.8201-9,28.35c-4.6901,8.24-12.85,14.8401-22.4301,16.0901c-9.9399,1.37-19.78-2.1801-28.1699-7.24
			c-11.62-7.0801-21.3-16.91-29.7101-27.5c-13.03-16.6101-23.1-35.39-30.83-54.9901c-7.23-18.5499-12.4-37.96-14.66-57.75
			c-1.83-17.3199-1.78-35.2599,3.62-51.98C1304.47,1104.52,1309.91,1095.0601,1318.83,1089.88"/>
		<path fill="none" stroke="#7D8E98" stroke-width="0.3" d="M1077.1801,1117.8c5.73-3.15,12.5299-2.64,18.83-3.5601
			c-1.39,0.28-2.78,0.54-4.13,0.84c0.2,0.3401,0.62,1.03,0.8199,1.37"/>
		<path fill="none" stroke="#7F7F7F" stroke-width="0.3" d="M1347.17,1153.24c5.6899-2.15,11.8099,0.7,16.25,4.28
			c10.34,8.4299,16.87,20.59,21.24,33c3.73,11.14,5.87,23.25,3.52,34.9199c-1.1901,5.3101-4.01,11.15-9.5901,12.9
			c-6.0599,1.7201-12.0699-1.5499-16.58-5.35c-9.29-8.05-15.41-19.13-19.62-30.53c-3.96-10.97-6.21-22.85-4.52-34.5
			C1338.8101,1162.17,1341.3101,1155.6,1347.17,1153.24z"/>
		<path fill="none" stroke="#000000" stroke-width="0.3" d="M1354.42,1172.55c4.12-1.05,7.9099,1.6899,10.6499,4.47
			c6.0901,6.4199,9.63,14.9199,11.2101,23.54c0.6899,4.7799,0.9399,9.9399-1.13,14.4399c-1.1801,2.73-4.22,4.72-7.22,4
			c-4.87-1-8.3-5.05-11.0901-8.85c-5.2899-7.9501-8.5499-17.51-8.1699-27.11C1348.9301,1179.05,1350.14,1173.97,1354.42,1172.55z"/>
		<path fill="none" stroke="#5080A5" stroke-width="0.3" d="M1091.33,1312.51c-1.11,0.12-2.2,0.24-3.2699,0.38
			c-0.54-0.0701-1.6001-0.2001-2.13-0.26c4.6699-1.25,9.35-2.47,14.09-3.42c23.97-4.98,47.89-10.21,71.86-15.22
			c8.96-1.71,17.77-4.55,26.92-5.09c-2.49,1.08-5.1001,1.78-7.7301,2.41"/>
		<path fill="none" stroke="#ffd9b5" stroke-width="0.3" d="M1188.77,1291.84c0.58-0.13,1.16-0.27,1.73-0.4
			c0.1899-0.0499,0.38-0.09,0.5699-0.1299c2.3-0.52,4.6101-1,6.9301-1.4801c8.8199,16.3401,16.92,33.0601,25.34,49.61
			c8.77,17.5901,17.6,35.16,25.9701,52.9501c1.49,3.11,4.3899,5.14,6.5099,7.79c5.9801,7.34,9.6901,16.37,11.28,25.6699
			c2.62,16.91-0.91,35.62-12.7,48.53c-1.47,1.73-3.65,3.2-3.8,5.6801c-12.39,75.6799-25.45,151.25-37.85,226.9299
			c-0.33,2.79-1.4,6.05,0.75,8.4301c16.7,23.64,33.36,47.3099,50.05,70.96c1.46,2.37,4.51,2.46,6.9199,3.28
			c24.5,6.6899,48.9401,13.61,73.4301,20.35c-0.5801,6.59-1.63,13.14-2.4501,19.71c-4.58-1.7-9.13-3.47-13.8099-4.85
			c3.92,4.36,8.1,8.47,12.36,12.5c-1.75,6.09-4.4,11.87-6.5699,17.8199c-5.92-4.12-10.88-9.4299-16.78-13.5599
			c3.5599,7.42,7.6899,14.55,11.34,21.9399c-4.64,4.39-8.97,9.0901-13.66,13.4301c-3.89-4.75-7.7-9.55-11.7799-14.12
			c1.5399,8.38,3.5499,16.67,5.09,25.0699c-5.5601,2.9-10.72,6.53-16.42,9.17c-2.0499-7.46-4.36-14.83-6.47-22.26
			c-2.48,10.11-4.62,20.3201-6.73,30.52c-13.12,0.14-26.23,0.05-39.34,0.05c-1.9301-8.9701-3.6801-17.9601-5.39-26.9501
			c-9.79-3.7-20.16-5.9199-29.78-9.9399c-6.37-13.15-11.98-26.7001-18.0601-40c-2.37-4.8201-3.72-10.4-7.86-14.0901
			c-7.1599-6.86-14.0699-13.96-21.09-20.96c-2.34-2.4299-5.72-3.24-8.73-4.46c-16-6.26-32.02-12.48-48.02-18.75l-0.3199-0.48
			c-1.14-21.0701-1.6901-42.16-2.8201-63.2301c14.15-8.24,28.71-15.7699,42.8-24.1c-1-17.14-0.73-34.3199-1.53-51.46
			c-1.17-51.72-2.72-103.4401-3.91-155.16c0.17-2.58,2.1901-4.4399,3.5801-6.45c11.4399-15.4,22.7699-30.88,34.1499-46.3201
			c-26.7799-36.86-53.76-73.59-80.37-110.5699C1123.84,1305.79,1156.3199,1298.86,1188.77,1291.84"/>
		<path fill="none" stroke="#ffd9b5" stroke-width="0.3" d="M799.26,1404.11c13.73-28.09,27.53-56.17,41.89-83.95
			c34.66,7.1799,69.3199,14.4099,103.96,21.76c-7.81,11.48-16.3,22.47-24.37,33.7699c-13.19,18.13-26.37,36.26-39.58,54.3701
			c-1.74,2.5299-4.03,4.8099-5.04,7.7699c1.14,2.11,2.7,3.9701,4.13,5.92c11.11,14.98,22.1,30.0601,33.2,45.0601
			c-1.61,69.4399-3.67,138.8799-5.29,208.33c14.1,7.99,28.32,15.78,42.46,23.7c-0.55,21.1901-1.95,42.35-2.44,63.54
			c-17.76,7.3099-35.79,14-53.64,21.12c-2.94,1.1899-4.91,3.79-7.12,5.95c-6.14,6.17-12.29,12.3401-18.48,18.4601
			c-2.59,2.4-3.75,5.8199-5.14,8.98c-6.51,14.8099-13.28,29.52-19.76,44.35c-9.83,3.21-19.67,6.4-29.57,9.39
			c-2.47,9.01-3.54,18.33-5.86,27.37H769.3c-1.76-10.17-4.32-20.1801-6.44-30.27c-2.78,7.15-4.4,14.6801-6.85,21.96
			c-5.51-3.0599-10.93-6.25-16.32-9.48c1.68-8.4199,3.73-16.76,5.19-25.21c-3.89,4.8199-7.77,9.64-11.85,14.3
			c-4.69-4.3-9.07-8.9301-13.5601-13.42c3.71-7.45,7.85-14.6801,11.53-22.15c-5.8,4.53-11.22,9.52-16.98,14.09
			c-2.19-5.96-4.61-11.83-6.72-17.8099c4.31-4.27,8.65-8.52,12.82-12.92c-4.76,1.5901-9.45,3.4-14.23,4.9401
			c-0.77-6.51-1.69-13-2.47-19.49c25.83-7.28,51.72-14.36,77.55-21.5901c1.23-0.26,2.1801-1.0699,2.86-2.0699
			c13.89-19.8,27.87-39.53,41.81-59.29c3.14-4.89,7.15-9.25,9.77-14.45c-4.06-27.4301-9-54.75-13.45-82.14
			c-8.32-49.35-16.65-98.71-24.77-148.09c-18.26-10.7101-25.6-33.78-23-53.9401C776.1,1427.3101,784.23,1410.8,799.26,1404.11"/>
		<path fill="none" stroke="#f3cca6" stroke-width="0.3" d="M1236.26,1408.42c4.51-1.42,9.8099-0.3,13.09,3.1799
			c9.4,8.75,8.9601,24.98,0.38,34.14c-2.86,3.1-7.37,4.26-11.45,3.8101c-4.6-0.8501-8.51-4.0901-10.9501-7.9601
			c-2.9399-5.5599-4.0399-12.12-2.86-18.2999C1226.02,1417,1229.71,1410.45,1236.26,1408.42z"/>
		<path fill="none" stroke="#f3cca6" stroke-width="0.3" d="M795.32,1432.42c3.92-1.3401,8.6-1.0701,12.24,1.01
			c12.19,8.23,13.41,27.4299,4.15,38.2999c-3.02,3.8101-8,5.55-12.75,5.51c-7.47-0.99-13.14-7.1899-15.08-14.23
			c-1.81-7.02-1.82-14.85,1.75-21.34C787.37,1437.36,791.11,1434.21,795.32,1432.42z"/>
		<path fill="none" stroke="#ffc894" stroke-width="0.3" d="M1177.6,1464.61c4.15-2.9,7.8-6.5599,12.35-8.87
			c-6.61,19.53-9.4399,40.04-12.6699,60.33c-7.4,48.3401-12.4601,97.0801-14.7101,145.92c-1.23-6.25-0.5299-12.67-1.33-18.97
			c-2.47-51.36-4.85-102.71-7.39-154.0601c-0.0499-2.75-0.5399-6.2,2.22-7.85C1163.39,1475.79,1170.49,1470.1899,1177.6,1464.61z"/>
		<path fill="none" stroke="#ffc894" stroke-width="0.3" d="M868.48,1471.6899c-0.32-4.0099-1.49-8-0.81-12.0199
			c8.17,6.4299,13.62,15.51,20.46,23.22c3.62,5.02,7.87,9.6,11.23,14.7999c-0.03,22.0701-1.37,44.1801-1.59,66.28
			c-1.11,12.99-0.44,26.04-1.42,39.04c-0.5099,12.64-0.28,25.3099-1.13,37.9399c-0.29,10.3401-0.15,20.7101-0.9399,31.05
			c-0.3,6.66,0.23,13.38-0.79,20c-3.16-24.62-5.73-49.3199-8.46-73.99C879.38,1569.25,874.09,1520.45,868.48,1471.6899z"/>
	</g>
</g>
</svg>
